<svg width="0" height="0" class="sr-only">
  <symbol xmlns="http://www.w3.org/2000/svg" fill="none" viewBox="0 0 24 24" id="icon-user">
    <path stroke="currentColor" stroke-linecap="round" stroke-linejoin="round" stroke-width="2" d="M20 21c0-1.396 0-2.093-.172-2.661a4 4 0 0 0-2.667-2.667c-.568-.172-1.265-.172-2.661-.172h-5c-1.396 0-2.093 0-2.661.172a4 4 0 0 0-2.667 2.667C4 18.907 4 19.604 4 21M16.5 7.5a4.5 4.5 0 1 1-9 0 4.5 4.5 0 0 1 9 0"></path>
  </symbol>
  <symbol xmlns="http://www.w3.org/2000/svg" fill="none" viewBox="0 0 24 24" id="icon-mail">
    <path stroke="currentColor" stroke-linecap="round" stroke-linejoin="round" stroke-width="2" d="m2 7 8.165 5.715c.661.463.992.695 1.351.784a2 2 0 0 0 .968 0c.36-.09.69-.32 1.351-.784L22 7M6.8 20h10.4c1.68 0 2.52 0 3.162-.327a3 3 0 0 0 1.311-1.311C22 17.72 22 16.88 22 15.2V8.8c0-1.68 0-2.52-.327-3.162a3 3 0 0 0-1.311-1.311C19.72 4 18.88 4 17.2 4H6.8c-1.68 0-2.52 0-3.162.327a3 3 0 0 0-1.311 1.311C2 6.28 2 7.12 2 8.8v6.4c0 1.68 0 2.52.327 3.162a3 3 0 0 0 1.311 1.311C4.28 20 5.12 20 6.8 20"></path>
  </symbol>
  <symbol xmlns="http://www.w3.org/2000/svg" fill="none" viewBox="0 0 24 24" id="icon-lock">
    <path stroke="currentColor" stroke-linecap="round" stroke-linejoin="round" stroke-width="2" d="M17 11V8A5 5 0 0 0 7 8v3m.8 10h8.4c1.68 0 2.52 0 3.162-.327a3 3 0 0 0 1.311-1.311C21 18.72 21 17.88 21 16.2v-.4c0-1.68 0-2.52-.327-3.162a3 3 0 0 0-1.311-1.311C18.72 11 17.88 11 16.2 11H7.8c-1.68 0-2.52 0-3.162.327a3 3 0 0 0-1.311 1.311C3 13.28 3 14.12 3 15.8v.4c0 1.68 0 2.52.327 3.162a3 3 0 0 0 1.311 1.311C5.28 21 6.12 21 7.8 21"></path>
  </symbol>
  <symbol xmlns="http://www.w3.org/2000/svg" fill="none" viewBox="0 0 20 20" id="icon-warning">
    <path fill="#f6c23e" d="M10 0C4.477 0 0 4.477 0 10s4.477 10 10 10 10-4.477 10-10S15.523 0 10 0m-.937 5.938A.94.94 0 0 1 10 5c.516 0 .938.42.938.938v5a.938.938 0 0 1-1.876 0zM10 15.625a1.228 1.228 0 1 1 0-2.457 1.228 1.228 0 0 1 0 2.457" />
  </symbol>
  <symbol xmlns="http://www.w3.org/2000/svg" fill="none" viewBox="0 0 20 20" id="icon-error">
    <path fill="#e74a3b" d="M0 10C0 4.477 4.477 0 10 0s10 4.477 10 10-4.477 10-10 10S0 15.523 0 10m6.836-1.871 1.84 1.836-1.84 1.87c-.363.368-.363.962 0 1.294.367.398.96.398 1.293 0l1.836-1.805 1.87 1.805c.368.398.962.398 1.294 0 .398-.332.398-.926 0-1.293l-1.805-1.871 1.805-1.836c.398-.332.398-.926 0-1.293-.332-.363-.926-.363-1.293 0l-1.871 1.84-1.836-1.84c-.332-.363-.926-.363-1.293 0-.363.367-.363.96 0 1.293"/>
  </symbol>
  <symbol xmlns="http://www.w3.org/2000/svg" fill="none" viewBox="0 0 20 20" id="icon-correct">
    <path fill="#3cbc81" d="M0 10C0 4.477 4.477 0 10 0s10 4.477 10 10-4.477 10-10 10S0 15.523 0 10m14.523-1.727a1.096 1.096 0 0 0 0-1.546 1.096 1.096 0 0 0-1.546 0L8.75 10.953 7.023 9.227a1.096 1.096 0 0 0-1.546 0 1.096 1.096 0 0 0 0 1.546l2.5 2.5a1.096 1.096 0 0 0 1.546 0z"/>
  </symbol>
</svg>