<svg width="0" height="0" class="sr-only">
  <symbol xmlns="http://www.w3.org/2000/svg" fill="none" viewBox="0 0 24 24" id="icon-user">
    <path stroke="currentColor" stroke-linecap="round" stroke-linejoin="round" stroke-width="2" d="M20 21c0-1.396 0-2.093-.172-2.661a4 4 0 0 0-2.667-2.667c-.568-.172-1.265-.172-2.661-.172h-5c-1.396 0-2.093 0-2.661.172a4 4 0 0 0-2.667 2.667C4 18.907 4 19.604 4 21M16.5 7.5a4.5 4.5 0 1 1-9 0 4.5 4.5 0 0 1 9 0"></path>
  </symbol>
  <symbol xmlns="http://www.w3.org/2000/svg" fill="none" viewBox="0 0 24 24" id="icon-mail">
    <path stroke="currentColor" stroke-linecap="round" stroke-linejoin="round" stroke-width="2" d="m2 7 8.165 5.715c.661.463.992.695 1.351.784a2 2 0 0 0 .968 0c.36-.09.69-.32 1.351-.784L22 7M6.8 20h10.4c1.68 0 2.52 0 3.162-.327a3 3 0 0 0 1.311-1.311C22 17.72 22 16.88 22 15.2V8.8c0-1.68 0-2.52-.327-3.162a3 3 0 0 0-1.311-1.311C19.72 4 18.88 4 17.2 4H6.8c-1.68 0-2.52 0-3.162.327a3 3 0 0 0-1.311 1.311C2 6.28 2 7.12 2 8.8v6.4c0 1.68 0 2.52.327 3.162a3 3 0 0 0 1.311 1.311C4.28 20 5.12 20 6.8 20"></path>
  </symbol>
  <symbol xmlns="http://www.w3.org/2000/svg" fill="none" viewBox="0 0 24 24" id="icon-lock">
    <path stroke="currentColor" stroke-linecap="round" stroke-linejoin="round" stroke-width="2" d="M17 11V8A5 5 0 0 0 7 8v3m.8 10h8.4c1.68 0 2.52 0 3.162-.327a3 3 0 0 0 1.311-1.311C21 18.72 21 17.88 21 16.2v-.4c0-1.68 0-2.52-.327-3.162a3 3 0 0 0-1.311-1.311C18.72 11 17.88 11 16.2 11H7.8c-1.68 0-2.52 0-3.162.327a3 3 0 0 0-1.311 1.311C3 13.28 3 14.12 3 15.8v.4c0 1.68 0 2.52.327 3.162a3 3 0 0 0 1.311 1.311C5.28 21 6.12 21 7.8 21"></path>
  </symbol>
</svg>