<svg xmlns="http://www.w3.org/2000/svg" width="532" height="468" fill="none"><path fill="#e0e0e0" d="M86.738 176.717a1 1 0 0 1 0-.225v-2.986c0-2.078 0-5.073-.085-8.836l.16.141-51.765.084.256-.225v12.047l-.256-.234 36.89.103 10.884.065h3.99-3.873l-10.82.066-37.145.187h-.266v-12.168l.266-.234 51.764.084h.16v.15c0 3.8-.075 6.823-.086 8.92v2.93a2 2 0 0 1-.074.131"/><path fill="#e0e0e0" d="M93.75 164.67v-3.285c0-2.115 0-5.101-.097-8.77l.181.168-31.1.066c-.234.206.319-.281.266-.225v12.018l-.256-.215 22.249.103 6.48.066h2.372-.564l-1.777.14-6.384.066-22.418.102h-.245v-12.242l.266-.234 31.1.065h.192v.159c0 3.744-.074 6.73-.096 8.874v2.377q-.048.39-.17.767M243.497 67.935a1 1 0 0 1 0-.216v-2.995c0-2.078-.053-5.063-.096-8.836l.17.14-51.838.132c.117-.103-.266.234.256-.234v12.009l-.266-.225 36.889.103 10.895.066h3.99a1.2 1.2 0 0 1-.245 0h-3.628l-10.863.177-37.07.103h-.17V55.907l.276-.234 51.764.094h.096v.14c0 3.81-.075 6.824-.096 8.92v2.94a1 1 0 0 1-.064.168"/><path fill="#e0e0e0" d="M250.509 55.889v-3.286c0-2.106-.064-5.092-.107-8.76l.192.168-31.101.065.266-.234V55.87l-.255-.224 22.248.112 6.48.057h2.372a4 4 0 0 1-.563 0h-1.692l-6.384.056-22.557.29h-.223V43.861l.266-.234 31.1.066h.192v.168c0 3.744-.075 6.73-.107 8.864v2.377a5.5 5.5 0 0 1-.127.787M195.17 45.91v78.456H67.086l-4.618-77.903z"/><path fill="#fafafa" d="M62.468 46.463v77.735h128.084V46.463z"/><path fill="#e0e0e0" d="M191.169 124.731H61.861v-78.81H191.17zm-128.095-1.067h126.882V46.997H63.074z"/><path fill="#fafafa" d="M176.689 56.113H76.343v58.425h100.346z"/><path fill="#e0e0e0" d="M176.688 56.16a5 5 0 0 1-.5 0h-6.938l-20.673.066-72.235.13.266-.196v58.416l-.32-.281 100.347.056-.256.225c.053-17.784.107-32.358.139-42.504 0-5.073 0-9.042.063-11.756V56.15v4.08c0 2.706 0 6.646.064 11.7 0 10.184.075 24.805.128 42.645v.224h-.255l-100.346.057h-.32v-58.95h.288l72.426.131 20.61.066h6.841z"/><path fill="#e0e0e0" d="M62.468 46.238c.788.34 1.528.76 2.202 1.255 1.309.833 3.096 2.012 5.022 3.37a101 101 0 0 1 4.82 3.603 10 10 0 0 1 1.83 1.694c-.117.122-3.192-2.115-7.044-4.811s-6.937-4.98-6.83-5.11M190.563 46.463a63 63 0 0 1-6.746 5.017 62 62 0 0 1-7.129 4.605 62 62 0 0 1 6.736-5.045c3.841-2.64 7.033-4.699 7.139-4.577"/><path fill="#fafafa" d="m190.457 124.207-14.279-10.183z"/><path fill="#e0e0e0" d="M176.177 114.024a70 70 0 0 1 7.342 4.876 67 67 0 0 1 6.937 5.307 67 67 0 0 1-7.342-4.876c-3.936-2.808-7.054-5.139-6.937-5.307M62.468 124.198a60 60 0 0 1 6.692-4.998 60 60 0 0 1 7.065-4.559 60 60 0 0 1-6.671 4.998 60 60 0 0 1-7.086 4.559M96.718 74.318v19.563h63.138V74.318z"/><path fill="#f5f5f5" d="M321.371 413.88v35.821h125.212V413.88z"/><path fill="#e0e0e0" d="M316.114 403.865v10.016h134.841v-10.016H316.114"/><path fill="#e0e0e0" d="M383.54 449.701h63.042v-35.82h4.373v-10.016h-70.043v9.089zM364.282 419.656h-25.397v5.391h25.397z"/><path fill="#fafafa" d="M368.219 431.786h-32.601v11.382h32.601z"/><path fill="#ebebeb" d="M259.255 208.223h-51.764v12.046h51.764z"/><path fill="#e0e0e0" d="M237.368 232.961a1.2 1.2 0 0 1 0-.225v-2.976c0-2.078-.053-5.073-.085-8.836l.16.14-51.764.085.255-.225v12.028l-.255-.225 36.889.103 10.885.056h3.99-3.873l-10.821.066-37.07.103h-.266v-12.159l.266-.234 51.764.094h.159v.14c0 3.8-.064 6.823-.085 8.92v2.93a1.6 1.6 0 0 1-.149.215"/><path fill="#ebebeb" d="M510.082 136.375h-51.764v12.047h51.764z"/><path fill="#e0e0e0" d="M488.196 161.114v-3.211c0-2.078-.054-5.073-.086-8.836l.16.141-51.764.084.266-.225v12.047l-.255-.234 36.889.103 10.885.065h3.99-3.863l-10.831.066-37.07.103h-.255v-12.271l.266-.234 51.763.084h.085v.15c0 3.8-.063 6.823-.085 8.92v2.929a.7.7 0 0 1-.095.319"/><path fill="#2c2e2f" d="M504.017 450.862c0 .131-106.57.243-238.006.243s-238.028-.112-238.028-.243 106.549-.244 238.028-.244 238.006.103 238.006.244"/><path fill="#455a64" d="M454.126 27.547H299.973c-14.89 0-26.961 10.619-26.961 23.718v315.039c0 13.099 12.071 23.718 26.961 23.718h154.153c14.89 0 26.962-10.619 26.962-23.718V51.264c0-13.099-12.072-23.717-26.962-23.717"/><path fill="#263238" d="M477.811 366.341V51.246c0-11.492-10.59-20.807-23.653-20.807H299.942c-13.063 0-23.653 9.316-23.653 20.807v315.095c0 11.492 10.59 20.807 23.653 20.807h154.216c13.063 0 23.653-9.315 23.653-20.807"/><path fill="#455a64" d="M362.111 41.858a2.6 2.6 0 0 1-.934-.113c-.3-.094-.574-.241-.806-.432a2.05 2.05 0 0 1-.544-.678 1.83 1.83 0 0 1 0-1.626c.126-.256.311-.487.544-.678.232-.19.506-.338.806-.431a2.6 2.6 0 0 1 .934-.114h29.792a2.46 2.46 0 0 1 1.538.643c.401.378.625.876.625 1.393s-.224 1.015-.625 1.393a2.46 2.46 0 0 1-1.538.643zM346.151 41.858a2.55 2.55 0 0 1-1.289-.344 2.1 2.1 0 0 1-.854-.916 1.8 1.8 0 0 1-.132-1.179c.089-.395.31-.759.634-1.044.325-.286.738-.48 1.188-.559s.916-.038 1.34.116c.424.155.786.416 1.041.752.255.335.391.73.391 1.134 0 .54-.244 1.06-.679 1.442a2.5 2.5 0 0 1-1.64.598M354.674 41.858a2.56 2.56 0 0 1-1.292-.34 2.13 2.13 0 0 1-.859-.913 1.8 1.8 0 0 1-.136-1.18c.088-.396.308-.76.632-1.047a2.43 2.43 0 0 1 1.188-.561c.45-.08.917-.04 1.341.114.425.155.788.416 1.043.752s.392.73.392 1.134c-.003.54-.247 1.055-.679 1.437a2.5 2.5 0 0 1-1.63.604M407.959 41.858a2.55 2.55 0 0 1-1.291-.34 2.12 2.12 0 0 1-.859-.913 1.8 1.8 0 0 1-.137-1.18 1.98 1.98 0 0 1 .632-1.047 2.43 2.43 0 0 1 1.188-.561c.45-.08.917-.04 1.342.114.424.155.787.416 1.042.752.256.336.392.73.392 1.134-.003.54-.247 1.055-.679 1.437a2.5 2.5 0 0 1-1.63.604M399.436 41.858c-.459 0-.907-.12-1.289-.344a2.1 2.1 0 0 1-.854-.916 1.8 1.8 0 0 1-.132-1.179c.089-.395.31-.759.635-1.044.324-.286.737-.48 1.187-.559s.917-.038 1.34.116c.424.155.786.416 1.041.752.255.335.391.73.391 1.134 0 .54-.244 1.06-.679 1.442a2.5 2.5 0 0 1-1.64.598"/><path fill="#fafafa" d="M455.242 32.489h-29.217c-2.244-.001-4.429.636-6.227 1.817s-3.115 2.842-3.753 4.735l-.5 1.497c-.669 2.03-2.067 3.816-3.985 5.09s-4.252 1.967-6.655 1.977h-55.658c-2.412-.001-4.758-.69-6.687-1.965-1.928-1.274-3.334-3.064-4.006-5.102l-.49-1.497c-.638-1.895-1.956-3.557-3.757-4.738-1.801-1.18-3.988-1.817-6.234-1.814h-26.504c-5.461 0-10.697 1.908-14.558 5.304s-6.031 8.004-6.031 12.807V364.91c0 4.518 2.041 8.851 5.672 12.046 3.632 3.194 8.557 4.989 13.693 4.989h155.248a19.6 19.6 0 0 0 6.71-1.171c2.127-.774 4.06-1.909 5.689-3.341 1.628-1.431 2.92-3.131 3.801-5.002a13.8 13.8 0 0 0 1.335-5.902V48.223c-.003-4.172-1.888-8.173-5.242-11.123s-7.901-4.609-12.644-4.611"/><path fill="#455a64" d="M481.311 147.991h-.234V106.33h.234c.302 0 .591.105.805.293a.95.95 0 0 1 .333.708v39.658c0 .266-.12.521-.333.709a1.23 1.23 0 0 1-.805.293M272.735 131.976h.277v26.377h-.277a1.22 1.22 0 0 1-.805-.294.94.94 0 0 1-.334-.708v-24.336a.9.9 0 0 1 .075-.395 1 1 0 0 1 .244-.337q.16-.147.374-.227a1.3 1.3 0 0 1 .446-.08M272.735 97.54h.277v26.377h-.277a1.22 1.22 0 0 1-.805-.293.94.94 0 0 1-.334-.708V98.58a.9.9 0 0 1 .075-.395 1 1 0 0 1 .244-.338q.16-.146.374-.227c.141-.052.293-.08.446-.08M272.81 71.679h.212v12.262h-.212c-.268 0-.526-.094-.715-.26a.84.84 0 0 1-.296-.63V72.568c0-.236.106-.462.296-.629.189-.166.447-.26.715-.26"/><path fill="#263238" d="M427.909 44.666h-1.426v1.76h1.426zM430.228 43.88h-1.425v2.546h1.425zM432.559 43.3h-1.426v3.135h1.426zM434.889 42.158h-1.426v4.277h1.426zM455.988 46.52h-7.172a.56.56 0 0 1-.365-.132.44.44 0 0 1-.156-.318v-3.136a.43.43 0 0 1 .149-.32.56.56 0 0 1 .362-.138h7.182a.2.2 0 0 1 .095 0 .1.1 0 0 1 0 .084v1.03h.766q.054 0 .095.032a.12.12 0 0 1 .044.08v1.516a.112.112 0 0 1-.041.083.14.14 0 0 1-.098.03h-.766v1.038a.099.099 0 0 1-.008.095.1.1 0 0 1-.037.036.1.1 0 0 1-.05.02m-.128-3.81h-7.054a.25.25 0 0 0-.177.066.193.193 0 0 0-.068.158v3.136q0 .044.02.084.019.04.055.072.036.03.083.046.047.015.097.013h7.044v-1.03q0-.046.037-.079a.14.14 0 0 1 .091-.033h.766v-1.282h-.766a.14.14 0 0 1-.052-.01.1.1 0 0 1-.043-.026.1.1 0 0 1-.027-.04.1.1 0 0 1-.006-.046z"/><path fill="#263238" d="M449.146 45.77v-2.546h6.129v2.546zM441.73 46.276a.44.44 0 0 0-.09-.261.53.53 0 0 0-.241-.172.6.6 0 0 0-.309-.025.56.56 0 0 0-.272.13.45.45 0 0 0-.143.242.42.42 0 0 0 .035.272.5.5 0 0 0 .2.208c.089.05.193.076.299.074a.6.6 0 0 0 .202-.036.5.5 0 0 0 .17-.102.44.44 0 0 0 .149-.33M439.432 45.171l.67.58c.303-.256.707-.4 1.128-.402.417.003.818.147 1.117.403l.67-.58a2.6 2.6 0 0 0-.822-.485 2.84 2.84 0 0 0-1.941 0 2.6 2.6 0 0 0-.822.484"/><path fill="#263238" d="M441.209 43.206c-.528 0-1.051.091-1.538.27a4.1 4.1 0 0 0-1.303.769l.67.58c.58-.504 1.362-.786 2.176-.786s1.597.282 2.176.786l.671-.58a4.1 4.1 0 0 0-1.308-.771 4.5 4.5 0 0 0-1.544-.268"/><path fill="#263238" d="m437.304 43.28.67.59a4.7 4.7 0 0 1 1.496-.88 5.2 5.2 0 0 1 1.765-.31c.606 0 1.206.105 1.766.31a4.7 4.7 0 0 1 1.495.88l.671-.59c-1.044-.916-2.458-1.43-3.932-1.43s-2.888.514-3.931 1.43M463.085 85.326c0 .13-39.496.243-88.206.243s-88.205-.112-88.205-.243 39.485-.253 88.205-.253 88.206.103 88.206.253"/><path fill="#fafafa" d="M353.823 346.198a4.3 4.3 0 0 1-1.746-1.456 3.6 3.6 0 0 1-.642-2.04c0-.718.222-1.423.642-2.039a4.3 4.3 0 0 1 1.746-1.457 5.8 5.8 0 0 1 2.479-.514 5.7 5.7 0 0 1 2.468.514 4.33 4.33 0 0 1 1.735 1.442c.319.46.528.973.613 1.507a3.5 3.5 0 0 1-.116 1.598 3.8 3.8 0 0 1-.828 1.426c-.384.42-.862.767-1.404 1.019a5.55 5.55 0 0 1-2.468.525 5.6 5.6 0 0 1-2.479-.525m3.894-1.319c.415-.213.757-.52.989-.89.248-.391.373-.834.362-1.282a2.3 2.3 0 0 0-.362-1.292 2.55 2.55 0 0 0-.989-.879 3.3 3.3 0 0 0-1.415-.319c-.495 0-.982.11-1.415.319a2.55 2.55 0 0 0-.99.879 2.4 2.4 0 0 0-.362 1.292 2.4 2.4 0 0 0 .362 1.282c.233.37.575.677.99.89.433.209.92.318 1.415.318a3.3 3.3 0 0 0 1.415-.318M368.303 346.591l-1.702-2.162h-1.883v2.162h-2.043v-7.759h3.82c.7-.015 1.396.1 2.042.337a2.88 2.88 0 0 1 1.338.994c.321.443.482.961.461 1.486a2.3 2.3 0 0 1-.467 1.481 2.85 2.85 0 0 1-1.353.972l1.979 2.499zm-.521-5.953a2.34 2.34 0 0 0-1.394-.355h-1.67v2.714h1.67c.498.029.991-.097 1.394-.356.161-.124.287-.278.37-.452.083-.173.12-.361.109-.549a1.1 1.1 0 0 0-.107-.55 1.25 1.25 0 0 0-.372-.452M371.953 338.832h4.011a6.4 6.4 0 0 1 2.543.477 4 4 0 0 1 1.713 1.367c.404.621.617 1.325.617 2.04s-.213 1.42-.617 2.041a3.9 3.9 0 0 1-1.713 1.357 6.2 6.2 0 0 1-2.543.487h-4.011zm3.905 6.29a3.24 3.24 0 0 0 2.128-.646c.506-.478.787-1.107.787-1.76s-.281-1.281-.787-1.759a3.25 3.25 0 0 0-2.128-.656h-1.862v4.821z"/><path fill="#ebebeb" d="M348.95 91.84h-59.638v51.396h59.638z"/><path fill="#263238" d="M289.312 91.84h12.992l36.282-.075 124.701-.103h.266v51.864h-.277l-174.017-.084h-.181v-.234c0-16.137.075-29.016.107-37.833V91.813v13.693c0 8.817.063 21.64.106 37.739l-.192-.168 174.018-.075-.277.243V91.84l.277.234-124.488-.103-36.357-.075h-12.279z"/><path fill="#8baa36" d="m332.224 116.644-1.937 8.359 6.31-.122z"/><path fill="#000" d="m332.224 116.644-1.937 8.359 6.31-.122z" opacity=".3"/><path fill="#8baa36" d="m305.177 116.916 1.936 8.358-6.309-.131z"/><path fill="#000" d="m305.177 116.916 1.936 8.358-6.309-.131z" opacity=".3"/><path fill="#afe814" d="M321.327 118.46a.86.86 0 0 1-.549-.192.67.67 0 0 1-.249-.472l-.915-19.582a.6.6 0 0 1 .049-.278.7.7 0 0 1 .17-.24.8.8 0 0 1 .265-.158.9.9 0 0 1 .314-.053h1.064c.212 0 .415.073.565.205s.233.31.233.496l-.191 19.582a.66.66 0 0 1-.222.477.85.85 0 0 1-.534.215"/><path fill="#8baa36" d="M322.339 99.984h-2.628v1.703h2.628z"/><path fill="#afe814" d="M323.136 118.535a.76.76 0 0 1-.44-.35.61.61 0 0 1-.038-.52l6.777-18.664a.7.7 0 0 1 .156-.258.8.8 0 0 1 .261-.178.88.88 0 0 1 .647-.014l1.064.337a.8.8 0 0 1 .277.148q.12.099.187.231a.63.63 0 0 1 .005.557l-7.821 18.327a.7.7 0 0 1-.173.241.8.8 0 0 1-.268.159.88.88 0 0 1-.634-.016"/><path fill="#8baa36" d="m328.804 100.674-.665 1.6 2.468.794.665-1.6z"/><path fill="#fafafa" d="M330.713 113.565a5 5 0 0 0-1.58-1.368 5.7 5.7 0 0 0-2.081-.673 8.34 8.34 0 0 0-4.256.665c-1.064.431-2.128 1.02-3.192.824a6.5 6.5 0 0 1-2.128-1.049 8 8 0 0 0-2.719-1.009 8.5 8.5 0 0 0-2.952-.002c-2.009.413-3.765 1.48-4.915 2.986a4.5 4.5 0 0 0-.974 1.878c-.165.68-.16 1.384.016 2.063l25.132-.084a4.25 4.25 0 0 0 .39-2.152 4.4 4.4 0 0 0-.741-2.079"/><path fill="#263238" d="M330.042 117.3a4.1 4.1 0 0 0 0-1.086c-.087-.995-.591-1.926-1.415-2.612a3.84 3.84 0 0 0-2.075-.795 6.5 6.5 0 0 0-2.606.318c-.883.262-1.713.768-2.692 1.114-.505.184-1.05.27-1.596.253a4.7 4.7 0 0 1-1.596-.384c-1.011-.421-1.862-1.011-2.777-1.423a5.94 5.94 0 0 0-2.82-.552 6.3 6.3 0 0 0-2.387.603 5.55 5.55 0 0 0-1.869 1.437 6.2 6.2 0 0 0-1.33 2.705c-.074.347-.096.618-.117.805a1 1 0 0 1 0 .281 4 4 0 0 1 .064-1.095 6 6 0 0 1 1.287-2.808 5.7 5.7 0 0 1 1.9-1.494 6.4 6.4 0 0 1 2.441-.64 6.2 6.2 0 0 1 2.937.562c.936.421 1.788 1.001 2.767 1.413a3.923 3.923 0 0 0 3.011.131c.947-.337 1.787-.833 2.713-1.105a6.8 6.8 0 0 1 2.692-.318 4.14 4.14 0 0 1 2.128.861c.842.711 1.341 1.68 1.394 2.705.063.374.045.756-.054 1.124"/><path fill="#263238" d="M328.85 117.562a5.4 5.4 0 0 0 0-.936 2.7 2.7 0 0 0-.418-1.225 3.1 3.1 0 0 0-.965-.956 3 3 0 0 0-1.894-.403 6.2 6.2 0 0 0-2.128.796c-.722.447-1.514.8-2.351 1.048a5.04 5.04 0 0 1-2.82-.243c-1.809-.627-3.266-1.694-4.894-1.975a4.8 4.8 0 0 0-2.143.099 4.36 4.36 0 0 0-1.815 1.005 4.7 4.7 0 0 0-1.352 2.275c-.149.599-.127.936-.159.936a3.5 3.5 0 0 1 .074-.936c.18-.879.641-1.694 1.33-2.35a4.5 4.5 0 0 1 1.875-1.072 4.95 4.95 0 0 1 2.232-.116c1.692.29 3.192 1.366 4.937 1.975a4.9 4.9 0 0 0 2.682.234 9.7 9.7 0 0 0 2.298-1.011 6.3 6.3 0 0 1 2.202-.805 3.06 3.06 0 0 1 2.011.449c.41.268.747.613.986 1.009.239.397.375.836.397 1.284a2.2 2.2 0 0 1-.085.918"/><path fill="#263238" d="M327.297 117.571a1.4 1.4 0 0 0-.139-.74 1.63 1.63 0 0 0-.638-.645 2.06 2.06 0 0 0-1.266-.169c-1.001.131-1.884.936-3.192 1.32a6.68 6.68 0 0 1-4.256-.506 25 25 0 0 0-3.958-1.488 4.6 4.6 0 0 0-1.707-.123 4.45 4.45 0 0 0-1.613.507c-.644.396-1.113.974-1.33 1.638a4 4 0 0 0-.128.749 1.7 1.7 0 0 1 0-.768c.193-.699.665-1.313 1.33-1.731a4.5 4.5 0 0 1 1.674-.557 4.7 4.7 0 0 1 1.784.117c1.384.373 2.721.868 3.99 1.479a6.54 6.54 0 0 0 4.107.514c1.224-.365 2.128-1.17 3.192-1.282a2.13 2.13 0 0 1 1.352.206c.293.176.522.423.659.711.087.18.12.377.096.571q.038.096.043.197"/><path fill="#8baa36" d="M305.134 116.841c0 .571 4.618 21.434 4.618 21.434l18.088-.262 4.362-21.369z"/><path fill="#263238" d="M305.134 116.841h2.032l5.682-.066 19.375-.187h.17l-.074.141-2.798 4.895a820 820 0 0 0-2.352 4.109v.047H310.22l-4.98-8.845 5.129 8.779-.075-.047h16.875l-.096.047 2.352-4.099c.957-1.676 1.894-3.323 2.798-4.896l.107.141z"/><path fill="#000" d="m310.677 125.649.457.87h16.418l4.235-9.126-4.725 8.256z" opacity=".3"/><path fill="#fafafa" d="M322.392 134.429a50 50 0 0 1-6.384 0 55 55 0 0 1 6.384 0M321.232 131.106s0-.16-.106-.44a1.7 1.7 0 0 0-.49-.796 2.1 2.1 0 0 0-.871-.481 2.3 2.3 0 0 0-1.028-.041 2.1 2.1 0 0 0-.918.409c-.26.204-.457.463-.57.754-.113.29-.138.601-.074.902s.215.584.44.818c.224.235.514.415.84.522.314.106.654.14.987.099s.649-.156.918-.333c.365-.23.634-.559.766-.936.085-.272.085-.44.106-.44q.05.23 0 .459a1.86 1.86 0 0 1-.755 1.067 2.3 2.3 0 0 1-.989.383 2.4 2.4 0 0 1-1.075-.093 2.18 2.18 0 0 1-1.069-.7 1.76 1.76 0 0 1-.407-1.116c0-.4.142-.791.407-1.116.264-.326.638-.57 1.069-.7a2.4 2.4 0 0 1 1.077-.089c.361.053.701.187.987.389.387.261.655.637.755 1.057q.042.211 0 .422"/><path fill="#263238" d="M310.687 109.456a.75.75 0 0 0 .29-.157.63.63 0 0 0 .179-.255.84.84 0 0 0 0-.683 3.2 3.2 0 0 0-.596-.786c-.494-.551-.727-1.248-.65-1.946.078-.698.459-1.342 1.065-1.798.425-.347.947-.693 1.011-1.208a1.64 1.64 0 0 0-.199-.737 1.86 1.86 0 0 0-.525-.601 5.3 5.3 0 0 1-1.064-1.198 2.815 2.815 0 0 1-.117-2.528 3.16 3.16 0 0 1 1.202-1.347c.192-.132.408-.233.639-.3 0 0-.224.103-.586.356a3.14 3.14 0 0 0-1.064 1.338 2.7 2.7 0 0 0 .149 2.396c.292.429.65.819 1.064 1.161.246.181.444.407.58.663.136.255.207.534.208.816-.165.54-.542 1.011-1.064 1.329-.575.424-.942 1.026-1.025 1.681a2.35 2.35 0 0 0 .578 1.838c.247.249.448.53.596.833a.9.9 0 0 1 0 .749c-.288.44-.671.44-.671.384M313.528 109.456a.75.75 0 0 0 .29-.157.64.64 0 0 0 .178-.255.83.83 0 0 0 0-.683 3.2 3.2 0 0 0-.595-.786c-.494-.551-.727-1.248-.65-1.946.078-.698.459-1.342 1.065-1.798.425-.347.946-.693 1.01-1.208a1.6 1.6 0 0 0-.198-.737 1.86 1.86 0 0 0-.525-.601 5.3 5.3 0 0 1-1.064-1.198 2.815 2.815 0 0 1-.117-2.528 3.16 3.16 0 0 1 1.202-1.347c.192-.132.408-.233.638-.3 0 0-.234.103-.585.356a3.14 3.14 0 0 0-1.064 1.338 2.68 2.68 0 0 0 .149 2.396c.292.429.65.819 1.064 1.161.246.181.444.407.58.663.136.255.207.534.208.816-.165.54-.542 1.011-1.064 1.329a2.6 2.6 0 0 0-.905 1.189 2.26 2.26 0 0 0-.096 1.214c.08.406.27.789.554 1.116.247.249.448.53.596.833a.91.91 0 0 1 0 .749c-.32.44-.703.44-.671.384"/><path fill="#8baa36" d="M395.041 101.06h-34.526v4.137h34.526z"/><path fill="#e0e0e0" d="M451.582 111.262h-91.067v2.649h91.067zM451.582 116.569h-91.067v2.649h91.067z"/><path fill="#8baa36" d="M427.377 132.21h-1.724v1.488h-1.277v-1.488h-1.724v-1.058h1.724v-1.479h1.277v1.479h1.724zM439.145 133.586v1.142h-5.235v-.936l2.671-2.228c.229-.172.423-.378.574-.608.093-.16.144-.336.149-.515a.6.6 0 0 0-.066-.311.7.7 0 0 0-.221-.251 1.4 1.4 0 0 0-.819-.196 2 2 0 0 0-.82.159 1.5 1.5 0 0 0-.617.449l-1.17-.655a2.6 2.6 0 0 1 1.117-.833 4.1 4.1 0 0 1 1.639-.3c.462-.006.921.067 1.351.216.357.133.666.35.894.627.219.273.335.601.329.936.002.324-.082.644-.244.936a3.6 3.6 0 0 1-.915.992l-1.596 1.329zM445.539 131.733h2.809v1.095h-2.809z"/><path fill="#263238" d="M451.583 138.734v-1.03c0-.702 0-1.656-.054-2.873 0-2.509-.063-6.056-.106-10.427l.202.178-34.399.065.277-.243v14.321l-.266-.234 24.631.112 7.161.056h2.607a5 5 0 0 1-.617 0h-1.873l-7.097.056-24.812.113h-.266v-14.546l.276-.243 34.399.065h.203v.178c0 4.418-.075 8.003-.107 10.53 0 1.198 0 2.153-.053 2.808v.73a.57.57 0 0 1-.106.384"/><path fill="#e0e0e0" d="M367.463 134.157a3.9 3.9 0 0 1-2.181.805v1.245h-1.266v-1.208a7.8 7.8 0 0 1-1.777-.29 4.6 4.6 0 0 1-1.362-.599l.692-1.357a4.9 4.9 0 0 0 1.117.524c.428.138.875.226 1.33.262v-1.872a9.4 9.4 0 0 1-1.511-.421 2.64 2.64 0 0 1-1.064-.683 1.72 1.72 0 0 1-.415-1.189c-.004-.296.062-.59.194-.862a2.2 2.2 0 0 1 .572-.72 3.9 3.9 0 0 1 2.202-.805v-1.235h1.267v1.207a6.1 6.1 0 0 1 2.553.683l-.628 1.367a5.5 5.5 0 0 0-1.925-.58v1.872a9.4 9.4 0 0 1 1.489.402c.414.142.78.374 1.064.674.288.343.435.762.415 1.189.008.297-.057.593-.189.868-.132.274-.329.52-.577.723m-4.139-4.399c.205.14.44.242.692.299v-1.572a1.5 1.5 0 0 0-.713.309.7.7 0 0 0-.224.505.5.5 0 0 0 .063.254q.065.12.182.205m2.628 3.454a.6.6 0 0 0 .176-.217.55.55 0 0 0 .058-.261.5.5 0 0 0-.056-.253.6.6 0 0 0-.178-.205 2.2 2.2 0 0 0-.67-.309v1.535c.249-.042.48-.143.67-.29M377.007 134.157a3.92 3.92 0 0 1-2.192.805v1.245h-1.255v-1.208a7.6 7.6 0 0 1-1.777-.29 4.8 4.8 0 0 1-1.373-.599l.702-1.357c.327.215.685.391 1.064.524.429.138.876.226 1.33.262v-1.872a10 10 0 0 1-1.521-.421 2.65 2.65 0 0 1-1.064-.683 1.72 1.72 0 0 1-.415-1.189c-.004-.296.062-.59.194-.862a2.2 2.2 0 0 1 .572-.72 3.9 3.9 0 0 1 2.202-.805v-1.235h1.256v1.207a6.1 6.1 0 0 1 2.564.683l-.628 1.367a5.5 5.5 0 0 0-1.936-.58v1.872a9 9 0 0 1 1.5.402c.412.144.778.376 1.064.674.288.343.435.762.415 1.189.016.293-.039.587-.159.861a2.1 2.1 0 0 1-.543.73m-4.139-4.399c.205.14.44.242.692.299v-1.572a1.5 1.5 0 0 0-.713.309.7.7 0 0 0-.224.505.5.5 0 0 0 .059.255q.066.122.186.204m2.628 3.454a.6.6 0 0 0 .176-.217.6.6 0 0 0 .058-.261.53.53 0 0 0-.06-.252.6.6 0 0 0-.174-.206 2.2 2.2 0 0 0-.681-.309v1.535c.253-.04.489-.141.681-.29"/><path fill="#263238" d="M348.991 143.713c-.159 0-.276-11.54-.276-25.777s.117-25.787.276-25.787.277 11.541.277 25.787-.106 25.777-.277 25.777"/><path fill="#ebebeb" d="M348.95 148.543h-59.638v51.396h59.638z"/><path fill="#263238" d="M289.312 148.543h13.034l36.282-.065 124.701-.113h.266v51.864h-.277l-174.017-.084h-.181v-.159c0-16.137.075-29.016.106-37.833V148.59v13.684c0 8.817.064 21.65.107 37.74l-.192-.159 174.018-.085-.277.244v-51.471l.277.234-124.488-.103-36.357-.065h-12.279z"/><path fill="#8baa36" d="M395.041 157.763h-34.526v4.137h34.526z"/><path fill="#e0e0e0" d="M451.582 167.975h-91.067v2.648h91.067zM451.582 173.272h-91.067v2.649h91.067z"/><path fill="#8baa36" d="M427.377 188.922h-1.724v1.479h-1.277v-1.479h-1.724v-1.067h1.724v-1.479h1.277v1.479h1.724zM436.644 185.328v6.103h-1.607v-4.97h-1.383v-1.133zM443.581 188.436h2.809v1.095h-2.809z"/><path fill="#263238" d="M451.583 195.437v-1.03c0-.702 0-1.656-.054-2.873 0-2.509-.063-6.056-.106-10.427l.202.178-34.399.065.277-.243v14.32l-.266-.234 24.631.113 7.161.065h2.607a5 5 0 0 1-.617 0h-1.873l-7.097.066-24.812.103h-.266v-14.424l.276-.243 34.399.065h.203v.178c0 4.418-.075 8.003-.107 10.539 0 1.198 0 2.144-.053 2.808v.73a.6.6 0 0 1-.106.244"/><path fill="#e0e0e0" d="M367.463 190.86a3.9 3.9 0 0 1-2.181.805v1.245h-1.266v-1.208a7.3 7.3 0 0 1-1.777-.29 4.6 4.6 0 0 1-1.362-.599l.692-1.357c.34.223.717.399 1.117.524a6 6 0 0 0 1.33.271v-1.872a12 12 0 0 1-1.511-.421 2.7 2.7 0 0 1-1.064-.683 1.72 1.72 0 0 1-.415-1.198c-.004-.296.062-.59.194-.862a2.2 2.2 0 0 1 .572-.72 3.9 3.9 0 0 1 2.202-.805v-1.17h1.267v1.217c.9.039 1.777.27 2.553.674l-.628 1.366a5.5 5.5 0 0 0-1.925-.58v1.872q.763.148 1.489.402c.415.146.781.381 1.064.684.291.338.438.755.415 1.179-.002.287-.071.57-.203.833a2.1 2.1 0 0 1-.563.693m-4.139-4.399c.202.144.439.246.692.299v-1.572a1.44 1.44 0 0 0-.713.318.67.67 0 0 0-.224.505.5.5 0 0 0 .063.25.6.6 0 0 0 .182.2m2.628 3.453a.6.6 0 0 0 .176-.216.55.55 0 0 0 .058-.261.5.5 0 0 0-.056-.253.6.6 0 0 0-.178-.206 2.6 2.6 0 0 0-.67-.308v1.535c.25-.038.483-.139.67-.291"/><path fill="#263238" d="M348.991 200.416c-.159 0-.276-11.541-.276-25.777s.138-25.815.276-25.815c.139 0 .277 11.541.277 25.787s-.106 25.805-.277 25.805"/><path fill="#8baa36" d="m307.411 166.936 2.213 25.88c.035.388.233.751.555 1.018s.747.418 1.19.424l11.96.084c.444.001.874-.144 1.203-.407.329-.264.533-.626.573-1.016l2.426-25.693z"/><path fill="#000" d="M326.488 178.261c-6.083.217-12.174.145-18.248-.215l.575 7.787s10.64 1.601 17.024-.355zM327.393 168.639a32 32 0 0 1-13.034 1.713c-5.788-.318-6.81-1.554-6.81-1.554l-.074-1.16h20.013z" opacity=".3"/><path fill="#e0e0e0" d="m328.371 165.831.469 1.788s-2.288 1.666-11.641 1.554c-8.373-.094-10.405-1.46-10.405-1.46l-.649-.487.574-1.685z"/><path fill="#263238" d="M328.372 165.831h-6.267l-15.396-.187h.063l-.564 1.685v-.066l.681.506q.395.209.83.346l.437.131.446.122c.586.14 1.182.252 1.777.346q1.734.269 3.49.365c2.125.135 4.256.17 6.384.103a37 37 0 0 0 5.15-.468 18 18 0 0 0 1.99-.44 6 6 0 0 0 1.468-.59l-.319-1.319-.085-.347v-.121a.5.5 0 0 1 0 .112l.085.346c.085.3.213.749.362 1.32a6.2 6.2 0 0 1-1.479.608q-.978.287-1.99.459a37 37 0 0 1-5.16.487c-2.129.073-4.26.045-6.384-.084a36 36 0 0 1-3.501-.365 21 21 0 0 1-1.798-.356c-.149 0-.298-.075-.447-.112a3.4 3.4 0 0 1-.436-.141 4.2 4.2 0 0 1-.862-.356l-.692-.505c.202-.58.394-1.151.575-1.685l15.428.234 4.575.075h1.649z"/><path fill="#fafafa" d="M306.698 165.672c0 .861 4.81 1.479 10.832 1.619 4.107.094 10.108-.599 10.842-1.507.574-.692-4.841-1.582-10.821-1.619s-10.842.665-10.853 1.507"/><path fill="#263238" d="M306.698 165.672a.4.4 0 0 1 0-.103.57.57 0 0 1 .213-.234 4.2 4.2 0 0 1 1.202-.459 30 30 0 0 1 4.756-.627 70 70 0 0 1 7.129-.075c1.351.066 2.756.159 4.256.337.723.085 1.458.188 2.202.337q.542.103 1.064.262.28.081.543.197l.128.065.127.075q.062.046.107.103a.2.2 0 0 1 0 .159.27.27 0 0 1-.075.141l-.117.103a2 2 0 0 1-.244.15q-.257.123-.532.205a10 10 0 0 1-1.064.291c-.745.159-1.479.271-2.203.374-1.447.178-2.851.29-4.192.337a44 44 0 0 1-3.82 0c-1.192 0-2.309-.112-3.32-.197a32 32 0 0 1-4.745-.645 3.9 3.9 0 0 1-1.202-.459.5.5 0 0 1-.213-.234.4.4 0 0 1 0-.094v.094a.5.5 0 0 0 .213.215c.37.202.777.347 1.202.431 1.559.322 3.147.528 4.745.618a80 80 0 0 0 3.31.168q1.904.084 3.809 0a48 48 0 0 0 4.192-.346 32 32 0 0 0 2.181-.365q.542-.119 1.064-.29.268-.09.521-.206.119-.063.224-.141a.34.34 0 0 0 .149-.159.2.2 0 0 0-.03-.096.2.2 0 0 0-.077-.072l-.234-.131a5 5 0 0 0-.521-.188 11 11 0 0 0-1.064-.252 26 26 0 0 0-2.192-.337 52 52 0 0 0-4.181-.337 71 71 0 0 0-7.129.047 29.5 29.5 0 0 0-4.746.589 4.3 4.3 0 0 0-1.191.431.7.7 0 0 0-.224.215c-.01.103-.01.103-.021.103"/><path fill="#e0e0e0" d="m323.711 164.165.256 1.002s-1.288 1.029-6.544.879-5.841-.823-5.841-.823l-.149-.159.106-1.067z"/><path fill="#263238" d="M323.711 164.165h-3.532l-8.65-.103.074-.047c0 .337-.074.693-.106 1.058l.117.112q.037.061.106.094c.299.145.622.25.958.309.33.075.67.131 1 .178.66.084 1.319.14 1.958.187q1.768.128 3.543.093c.967-.009 1.932-.09 2.883-.243a8 8 0 0 0 1.064-.262c.29-.075.563-.192.809-.346l-.181-.749v-.187a.3.3 0 0 1 0-.075.2.2 0 0 1 0 .065l.053.187c.053.178.117.422.213.749a3.5 3.5 0 0 1-.819.375q-.522.166-1.064.271c-.955.163-1.923.254-2.894.272-1.064 0-2.288 0-3.565-.085a37 37 0 0 1-1.968-.187c-.33 0-.671-.103-1.011-.178a3.7 3.7 0 0 1-1-.327.5.5 0 0 1-.138-.113l-.107-.112.107-1.058v-.056h.063l8.683.141 2.564.056h.926z"/><path fill="#fafafa" d="M311.528 164.081c0 .486 2.724.936 6.086.936s6.097-.365 6.097-.852-2.724-.936-6.086-.936-6.097.365-6.097.852"/><path fill="#263238" d="M311.528 164.081s0-.094.128-.187c.202-.125.43-.214.67-.262a16.5 16.5 0 0 1 2.681-.366 40 40 0 0 1 4.022-.046c.756 0 1.543.075 2.362.168.405.056.82.112 1.245.197q.315.064.617.168.158.051.298.131a.4.4 0 0 1 .15.107.33.33 0 0 1 .074.155.34.34 0 0 1-.073.161.4.4 0 0 1-.151.111 1.3 1.3 0 0 1-.298.121 4 4 0 0 1-.627.16c-.415.084-.83.14-1.245.187-.82.084-1.617.121-2.373.14a36 36 0 0 1-4.011-.093 16 16 0 0 1-2.671-.384 2.5 2.5 0 0 1-.681-.272c-.138-.093-.127-.196-.117-.196a.23.23 0 0 0 .046.103.3.3 0 0 0 .092.075q.314.168.671.243c.877.186 1.77.305 2.67.356q1.999.13 4.001.065c.756 0 1.543-.065 2.362-.15q.617-.066 1.224-.187.31-.053.606-.15l.288-.121c.085 0 .159-.103.159-.169 0-.065-.074-.121-.159-.168a3 3 0 0 0-.277-.122 7 7 0 0 0-.607-.159c-.415-.084-.819-.14-1.234-.197a36 36 0 0 0-2.351-.177 42 42 0 0 0-4.001 0c-.899.036-1.793.143-2.671.318-.239.05-.469.132-.681.243a.3.3 0 0 0-.096.084.24.24 0 0 0-.042.113"/><path fill="#fafafa" d="m316.625 163.866-.287-11.569 1.66-.066.276 11.644c-.649-.019-1.053.178-1.649-.009"/><path fill="#263238" d="M316.625 163.866q.203.054.415.065.26.02.521 0 .359-.055.724-.047a1114 1114 0 0 1-.319-11.597l.063.056-1.659.057.063-.057c.075 3.248.139 6.141.181 8.218v3.389a.2.2 0 0 0 0-.056v-.824c0-.58 0-1.413-.074-2.443-.064-2.087-.149-4.98-.234-8.246v-.056h.064l1.649-.066h.074v.094c.128 5.092.213 9.5.245 11.606a6 6 0 0 0-.713 0 3.5 3.5 0 0 1-.521 0 1.4 1.4 0 0 1-.309-.056z"/><path fill="#455a64" d="m317.487 152.306.277 11.597-.617-.019-.373-11.569z"/><path fill="#263238" d="M316.008 163.744s.734.084 1.628.094 1.638-.103 1.638-.066q-.226.08-.468.103a8 8 0 0 1-1.17.075 7 7 0 0 1-1.16-.094 1.3 1.3 0 0 1-.468-.112M327.818 168.078a2.6 2.6 0 0 1-.319-.862 4 4 0 0 1-.191-.879c.158.27.266.56.319.861q.146.431.191.88M326.084 168.546a3.6 3.6 0 0 1-.33-.88 3.3 3.3 0 0 1-.202-.936q.224.423.33.88c.119.301.187.617.202.936M324.212 168.911a4.3 4.3 0 0 1-.288-.936 4 4 0 0 1-.159-.936c.143.299.24.614.287.936.102.304.156.619.16.936M322.009 169.117a7.2 7.2 0 0 1-.32-1.872q.165.458.224.936.104.463.096.936M319.689 169.21a4 4 0 0 1 0-.936 3.7 3.7 0 0 1 .107-.936 4 4 0 0 1 0 .936q.006.474-.107.936M317.796 169.163a2.8 2.8 0 0 1 0-.936c-.003-.315.04-.63.127-.936.054.31.054.626 0 .936q.002.476-.127.936M315.795 169.098a2.5 2.5 0 0 1 .064-.936q.046-.461.244-.889c.002.314-.037.629-.117.936a4.2 4.2 0 0 1-.191.889M313.422 168.957c.032-.318.107-.633.223-.936q.112-.486.351-.936c-.025.32-.1.635-.223.936a3.8 3.8 0 0 1-.351.936M311.263 168.817a4 4 0 0 1 .212-.936c.064-.324.178-.64.341-.936a4 4 0 0 1-.213.936 3.3 3.3 0 0 1-.34.936M308.72 168.386c.048-.301.137-.597.266-.879q.145-.442.404-.843a7 7 0 0 1-.67 1.722M306.814 167.759c.042-.27.124-.535.245-.786.074-.265.196-.518.362-.749-.04.271-.122.536-.245.786a2.4 2.4 0 0 1-.362.749"/><path fill="#8baa36" d="M335.596 228.44a1.74 1.74 0 0 0-.078-1.024 2 2 0 0 0-.656-.848 3.54 3.54 0 0 0-2.128-.664 3.94 3.94 0 0 0-1.969.458c-.336.175-.62.418-.828.709a1.933 1.933 0 0 0-.197 1.967c.147.318.378.601.674.825.653.508 1.501.779 2.373.758a3.1 3.1 0 0 0 1.99-.636c.257-.195.467-.434.615-.703s.232-.562.246-.861"/><path fill="#ebebeb" d="M348.95 205.115h-59.638v51.396h59.638z"/><path fill="#263238" d="M289.313 205.115h13.034l36.282-.065 124.701-.113h.266v51.864h-.277l-174.017-.084h-.181v-.253c0-16.127.075-29.016.106-37.833v-13.553 13.693c0 8.817.064 21.641.107 37.731l-.192-.16 174.018-.084-.277.244v-51.387l.277.234-124.488-.112-36.357-.066h-12.279z"/><path fill="#8baa36" d="M395.042 214.335h-34.526v4.137h34.526z"/><path fill="#e0e0e0" d="M451.583 224.537h-91.067v2.649h91.067zM451.583 229.835h-91.067v2.649h91.067z"/><path fill="#8baa36" d="M427.377 245.485h-1.723v1.479h-1.277v-1.479h-1.724v-1.058h1.724v-1.488h1.277v1.488h1.723zM436.644 241.9v6.14h-1.607v-4.97h-1.383v-1.133zM443.582 245.007h2.809v1.086h-2.809z"/><path fill="#263238" d="M451.584 251.999v-1.029c0-.693 0-1.657-.054-2.874 0-2.499-.063-6.056-.106-10.417l.202.177-34.399.066.277-.243v14.302l-.266-.225 24.631.103 7.161.065h2.607a5 5 0 0 1-.617 0h-1.873l-7.097.066-24.812.112h-.266v-14.358c-.064 0 .521-.468.276-.253l34.399.066h.203v.187c0 4.409-.075 8.003-.107 10.53 0 1.198 0 2.143-.053 2.808v.721c-.085.121-.096.206-.106.196"/><path fill="#e0e0e0" d="M367.463 247.432a4 4 0 0 1-2.181.805v1.244h-1.266v-1.216a7.3 7.3 0 0 1-1.777-.29 4.4 4.4 0 0 1-1.362-.6l.692-1.347a4.8 4.8 0 0 0 1.117.514c.426.146.874.237 1.33.272v-1.872a12 12 0 0 1-1.511-.421 2.7 2.7 0 0 1-1.064-.684 1.72 1.72 0 0 1-.415-1.198 1.9 1.9 0 0 1 .195-.861 2.2 2.2 0 0 1 .571-.721 3.96 3.96 0 0 1 2.202-.804v-1.227h1.267v1.208c.9.039 1.777.27 2.553.674l-.628 1.366a5.5 5.5 0 0 0-1.925-.571v1.872q.763.149 1.489.403c.412.149.778.383 1.064.683.291.339.438.756.415 1.179.007.298-.058.594-.19.868a2.1 2.1 0 0 1-.576.724m-4.139-4.409c.204.144.44.249.692.309v-1.582a1.55 1.55 0 0 0-.713.318.67.67 0 0 0-.224.506.5.5 0 0 0 .062.25.6.6 0 0 0 .183.199m2.628 3.454a.6.6 0 0 0 .176-.216.56.56 0 0 0 .058-.261.5.5 0 0 0-.056-.249.6.6 0 0 0-.178-.201 2.1 2.1 0 0 0-.67-.309v1.526c.252-.034.486-.135.67-.29M376.135 247.432a3.96 3.96 0 0 1-2.181.805v1.244h-1.266v-1.216a7.4 7.4 0 0 1-1.777-.29 4.4 4.4 0 0 1-1.362-.6l.691-1.347c.347.217.727.391 1.128.514.423.146.867.237 1.32.272v-1.872a12 12 0 0 1-1.511-.421 2.7 2.7 0 0 1-1.064-.684 1.72 1.72 0 0 1-.426-1.198 1.9 1.9 0 0 1 .195-.861 2.2 2.2 0 0 1 .571-.721 3.96 3.96 0 0 1 2.203-.804v-1.227h1.266v1.208a6.2 6.2 0 0 1 2.564.674l-.638 1.366a5.5 5.5 0 0 0-1.926-.571v1.872q.763.149 1.489.403c.414.146.78.381 1.064.683.291.339.438.756.415 1.179.009.297-.054.593-.185.867-.13.274-.324.521-.57.725m-4.139-4.409c.205.142.44.247.692.309v-1.582a1.45 1.45 0 0 0-.703.318.68.68 0 0 0-.234.506.5.5 0 0 0 .062.25.6.6 0 0 0 .183.199m2.639 3.454a.65.65 0 0 0 .168-.218.6.6 0 0 0 .055-.259.5.5 0 0 0-.057-.249.6.6 0 0 0-.177-.201 2 2 0 0 0-.67-.309v1.526c.255-.034.492-.135.681-.29"/><path fill="#263238" d="M348.992 256.988c-.159 0-.276-11.55-.276-25.787s.117-25.777.276-25.777.277 11.541.277 25.777-.106 25.787-.277 25.787"/><path fill="#455a64" d="M322.03 228.085c1.026-1.211 1.659-2.644 1.831-4.147a6.06 6.06 0 0 0-.724-3.931c-.053-.084-.106-.178-.213-.206a.5.5 0 0 0-.319 0 5.26 5.26 0 0 0-2.108 1.631 4.4 4.4 0 0 0-.893 2.341c-.058.836.135 1.67.561 2.419a5.03 5.03 0 0 0 1.865 1.846M325.339 224.64c1.215-.406 2.282-1.095 3.086-1.994.769-.79 1.241-1.771 1.351-2.808a.24.24 0 0 0 0-.206.35.35 0 0 0-.223-.084 4.6 4.6 0 0 0-2.097.286 4.04 4.04 0 0 0-1.651 1.173 3.36 3.36 0 0 0-.76 1.743 3.2 3.2 0 0 0 .337 1.843"/><path fill="#8baa36" d="M324.776 227.982a1.73 1.73 0 0 0-.077-1.025 1.95 1.95 0 0 0-.658-.847 3.6 3.6 0 0 0-2.128-.665c-.689-.02-1.37.14-1.957.459-.294.16-.548.37-.749.617a2.2 2.2 0 0 0-.422.824c-.071.376-.034.762.11 1.122.143.36.387.682.71.937.654.507 1.5.781 2.372.768a3.12 3.12 0 0 0 1.99-.646c.254-.195.46-.433.606-.7a2 2 0 0 0 .245-.854"/><path fill="#455a64" d="M332.277 229.863c2.948.459 5.874-2.415 6.576-4.278a.58.58 0 0 0 0-.599.784.784 0 0 0-.702-.14c-1.457.173-2.811.754-3.863 1.657-1.047.908-1.743 2.084-1.989 3.36"/><path fill="#8baa36" d="M314.051 224.397a1.73 1.73 0 0 0-.077-1.025 1.95 1.95 0 0 0-.658-.847 3.67 3.67 0 0 0-2.128-.665 4 4 0 0 0-1.957.468 2.3 2.3 0 0 0-.836.702 1.97 1.97 0 0 0-.375.961c-.036.342.023.687.171 1.005.148.319.38.601.678.823.656.511 1.507.785 2.383.768a3.12 3.12 0 0 0 1.99-.646c.254-.195.46-.433.606-.7a2 2 0 0 0 .245-.854"/><path fill="#455a64" d="M320.392 229.002c-.231-1.497-.918-2.91-1.99-4.09-.911-1.097-2.18-1.923-3.639-2.369a.5.5 0 0 0-.308 0 .4.4 0 0 0-.126.099.3.3 0 0 0-.066.135 4.2 4.2 0 0 0-.21 2.461 4.54 4.54 0 0 0 1.219 2.222 5.5 5.5 0 0 0 2.322 1.386 6.1 6.1 0 0 0 2.798.175M309.625 226.69a13 13 0 0 1-1.554-1.872 3.95 3.95 0 0 1-.659-2.247.4.4 0 0 1 .032-.171.4.4 0 0 1 .106-.147.54.54 0 0 1 .383 0c1.663.33 3.166 1.109 4.3 2.229s1.84 2.523 2.02 4.014l.085.393c-1.405.726-3.076.944-4.66.609a10.8 10.8 0 0 1-3.596-1.245c-1.097-.634-1.877-1.611-2.182-2.733a7.9 7.9 0 0 1 3.01.028 7.4 7.4 0 0 1 2.715 1.142M328 224.406c1.453-1.194 3.26-2.002 5.213-2.331a5.8 5.8 0 0 1-.226 2.559 6.3 6.3 0 0 1-1.326 2.287 7.3 7.3 0 0 1-2.223 1.662 8.2 8.2 0 0 1-2.779.784l-.117-.187a4.23 4.23 0 0 1-.028-2.566 4.7 4.7 0 0 1 1.486-2.208"/><path fill="#fafafa" d="M338.182 228.01c-1.119 3.823-3.13 7.399-5.905 10.502-6.522 7.066-21.28 5.101-25.249-.431-1.543-2.115-5.607-9.996-5.607-9.996z"/><path fill="#263238" d="M338.182 228.01h-10.608l-26.196.103.096-.141a223 223 0 0 0 3.809 7.067c.351.618.713 1.226 1.064 1.872.341.602.755 1.17 1.234 1.694a10.75 10.75 0 0 0 3.49 2.443 21 21 0 0 0 8.172 1.872 20.6 20.6 0 0 0 7.554-1.095c2.085-.734 3.934-1.907 5.384-3.416a27.4 27.4 0 0 0 4.809-7.432c.415-.936.692-1.704.873-2.209l.255-.787a18.5 18.5 0 0 1-1.064 3.024 27.4 27.4 0 0 1-4.767 7.488c-1.462 1.537-3.333 2.734-5.448 3.482a20.6 20.6 0 0 1-7.628 1.123 21 21 0 0 1-8.268-1.872 11 11 0 0 1-3.553-2.49 10.4 10.4 0 0 1-1.267-1.722 43 43 0 0 1-1.064-1.872c-1.362-2.396-2.617-4.774-3.819-7.067l-.064-.14h36.931z"/><path fill="#8baa36" d="M335.767 233.289c0 .056-7.055.094-15.758.094-8.704 0-15.769 0-15.769-.094s7.055-.094 15.769-.094 15.758.038 15.758.094M336.405 232.493c0 .057-7.309.094-16.322.094s-16.321 0-16.321-.094c0-.093 7.299-.103 16.321-.103s16.322.047 16.322.103"/><path fill="#ebebeb" d="M349.829 262.178h-59.638v51.395h59.638z"/><path fill="#263238" d="M290.192 262.178h13.034l36.282-.066L464.209 262h.266v51.864h-.277l-174.017-.084H290v-.253c0-16.127.074-29.016.106-37.833V262.14v13.694c0 8.817.064 21.64.107 37.73l-.192-.159 174.017-.084-.276.243v-51.386l.276.234-124.488-.112-36.356-.066h-12.279z"/><path fill="#8baa36" d="M395.921 271.397h-34.526v4.137h34.526z"/><path fill="#e0e0e0" d="M452.462 281.6h-91.067v2.649h91.067zM452.462 286.898h-91.067v2.648h91.067z"/><path fill="#8baa36" d="M428.256 302.548h-1.723v1.478h-1.277v-1.478h-1.724v-1.058h1.724v-1.488h1.277v1.488h1.723zM437.523 298.963v6.14h-1.607v-4.97h-1.383V299zM444.461 302.07h2.809v1.086h-2.809z"/><path fill="#263238" d="M452.463 309.062v-1.03c0-.692 0-1.656-.054-2.873 0-2.499-.064-6.056-.106-10.418l.202.178-34.399.066.277-.244v14.302l-.266-.224 24.631.103 7.161.065h2.607a5 5 0 0 1-.617 0h-1.873l-7.097.066-24.812.112h-.266v-14.358c-.064 0 .521-.468.276-.253l34.399.066h.203v.187c0 4.408-.075 8.003-.107 10.53 0 1.198 0 2.143-.053 2.808v.72c-.085.122-.096.206-.106.197"/><path fill="#e0e0e0" d="M368.342 304.494a4 4 0 0 1-2.181.805v1.245h-1.266v-1.217a7.3 7.3 0 0 1-1.777-.29 4.4 4.4 0 0 1-1.362-.599l.691-1.348c.344.216.72.389 1.118.515.426.146.874.237 1.33.272v-1.872a12 12 0 0 1-1.511-.422 2.7 2.7 0 0 1-1.064-.683 1.72 1.72 0 0 1-.415-1.198 1.9 1.9 0 0 1 .195-.861c.131-.273.326-.518.571-.721a3.96 3.96 0 0 1 2.202-.805v-1.226h1.267v1.208c.9.039 1.777.27 2.553.673l-.628 1.367a5.5 5.5 0 0 0-1.925-.571v1.872a10.6 10.6 0 0 1 1.489.403c.412.148.777.383 1.064.683.291.338.438.755.415 1.179.007.298-.058.594-.19.868a2.1 2.1 0 0 1-.576.723m-4.139-4.408c.204.143.439.249.692.309v-1.582a1.54 1.54 0 0 0-.713.318.67.67 0 0 0-.224.506.5.5 0 0 0 .062.25.6.6 0 0 0 .183.199m2.628 3.454a.6.6 0 0 0 .176-.217.6.6 0 0 0 .058-.261.5.5 0 0 0-.057-.249.56.56 0 0 0-.177-.2 2.1 2.1 0 0 0-.67-.309v1.526c.252-.034.486-.136.67-.29M377.014 304.494a3.96 3.96 0 0 1-2.181.805v1.245h-1.266v-1.217a7.3 7.3 0 0 1-1.777-.29 4.4 4.4 0 0 1-1.362-.599l.691-1.348a4.8 4.8 0 0 0 1.128.515c.423.145.867.237 1.32.272v-1.872q-.774-.164-1.511-.422a2.7 2.7 0 0 1-1.064-.683 1.72 1.72 0 0 1-.426-1.198 1.9 1.9 0 0 1 .195-.861 2.2 2.2 0 0 1 .571-.721 3.96 3.96 0 0 1 2.203-.805v-1.226h1.266v1.208c.904.04 1.783.271 2.564.673l-.638 1.367a5.5 5.5 0 0 0-1.926-.571v1.872a10.6 10.6 0 0 1 1.489.403c.414.146.78.381 1.064.683.291.338.438.755.415 1.179.008.297-.055.592-.185.867a2.1 2.1 0 0 1-.57.724m-4.139-4.408c.205.142.44.247.692.309v-1.582a1.45 1.45 0 0 0-.703.318.68.68 0 0 0-.234.506.5.5 0 0 0 .062.25.6.6 0 0 0 .183.199m2.639 3.454a.65.65 0 0 0 .168-.219.6.6 0 0 0 .055-.259.5.5 0 0 0-.057-.249.56.56 0 0 0-.177-.2 2 2 0 0 0-.67-.309v1.526c.255-.034.492-.135.681-.29"/><path fill="#263238" d="M349.871 314.051c-.159 0-.276-11.55-.276-25.787s.117-25.777.276-25.777.277 11.541.277 25.777-.106 25.787-.277 25.787"/><path fill="#455a64" d="M322.909 285.147c1.026-1.21 1.659-2.644 1.83-4.146a6.05 6.05 0 0 0-.723-3.931c-.053-.085-.106-.178-.213-.206a.47.47 0 0 0-.319 0 5.25 5.25 0 0 0-2.108 1.631 4.4 4.4 0 0 0-.893 2.341c-.059.836.135 1.67.561 2.419a5 5 0 0 0 1.865 1.846M326.218 281.703c1.215-.406 2.282-1.095 3.086-1.994.769-.791 1.241-1.772 1.351-2.808a.24.24 0 0 0 0-.206.35.35 0 0 0-.223-.084 4.6 4.6 0 0 0-2.097.286 4 4 0 0 0-1.651 1.173 3.35 3.35 0 0 0-.76 1.743c-.074.63.042 1.265.337 1.843"/><path fill="#8baa36" d="M325.655 285.044a1.73 1.73 0 0 0-.077-1.024 1.96 1.96 0 0 0-.658-.848 3.6 3.6 0 0 0-2.128-.664c-.689-.02-1.37.14-1.957.458a2.5 2.5 0 0 0-.749.618 2.2 2.2 0 0 0-.422.824c-.071.376-.034.762.109 1.122s.388.682.711.937c.654.507 1.5.781 2.372.768a3.13 3.13 0 0 0 1.99-.646 2.3 2.3 0 0 0 .606-.701c.146-.267.23-.557.245-.853"/><path fill="#455a64" d="M333.156 286.926c2.948.458 5.874-2.415 6.576-4.278a.58.58 0 0 0 0-.599.784.784 0 0 0-.702-.14c-1.457.173-2.811.754-3.863 1.656-1.047.909-1.743 2.085-1.989 3.361"/><path fill="#8baa36" d="M314.93 281.459a1.73 1.73 0 0 0-.077-1.024 1.96 1.96 0 0 0-.658-.848 3.67 3.67 0 0 0-2.128-.664 4 4 0 0 0-1.957.468 2.3 2.3 0 0 0-.837.701c-.21.29-.339.62-.374.962-.036.342.023.687.171 1.005.147.318.38.601.678.823.656.511 1.507.785 2.383.768a3.12 3.12 0 0 0 1.99-.646 2.3 2.3 0 0 0 .606-.701c.146-.267.23-.557.245-.853"/><path fill="#455a64" d="M321.271 286.065c-.231-1.497-.918-2.911-1.99-4.091-.911-1.096-2.181-1.922-3.639-2.368a.5.5 0 0 0-.308 0 .4.4 0 0 0-.126.098.3.3 0 0 0-.066.136 4.2 4.2 0 0 0-.211 2.461 4.55 4.55 0 0 0 1.22 2.222 5.5 5.5 0 0 0 2.322 1.385 6.1 6.1 0 0 0 2.798.175M310.504 283.753a13 13 0 0 1-1.554-1.872 3.95 3.95 0 0 1-.659-2.247.4.4 0 0 1 .032-.171.4.4 0 0 1 .106-.147.54.54 0 0 1 .383 0c1.662.33 3.166 1.109 4.3 2.229 1.133 1.119 1.84 2.523 2.02 4.014l.085.393c-1.405.726-3.076.944-4.66.609a10.8 10.8 0 0 1-3.596-1.245c-1.097-.634-1.877-1.611-2.182-2.733a7.9 7.9 0 0 1 3.01.028 7.4 7.4 0 0 1 2.715 1.142M328.879 281.469c1.453-1.194 3.26-2.003 5.213-2.331a5.8 5.8 0 0 1-.226 2.559 6.3 6.3 0 0 1-1.326 2.286 7.3 7.3 0 0 1-2.223 1.663 8.2 8.2 0 0 1-2.779.784l-.117-.188a4.22 4.22 0 0 1-.028-2.565 4.7 4.7 0 0 1 1.486-2.208"/><path fill="#fafafa" d="M339.061 285.072c-1.119 3.823-3.13 7.4-5.905 10.502-6.523 7.067-21.28 5.102-25.249-.43-1.543-2.116-5.607-9.997-5.607-9.997z"/><path fill="#263238" d="M339.061 285.072h-10.608l-26.196.103.096-.14a221 221 0 0 0 3.809 7.067c.351.617.713 1.226 1.064 1.872.341.602.755 1.17 1.234 1.694a10.8 10.8 0 0 0 3.49 2.443 21 21 0 0 0 8.171 1.872 20.6 20.6 0 0 0 7.555-1.095c2.085-.734 3.934-1.907 5.384-3.417a27.4 27.4 0 0 0 4.809-7.432c.415-.936.692-1.703.872-2.209l.256-.786a18.5 18.5 0 0 1-1.064 3.024 27.4 27.4 0 0 1-4.767 7.488c-1.462 1.537-3.333 2.733-5.448 3.481a20.6 20.6 0 0 1-7.628 1.124 21 21 0 0 1-8.268-1.872 11 11 0 0 1-3.554-2.49 10.4 10.4 0 0 1-1.266-1.722 44 44 0 0 1-1.064-1.872c-1.362-2.397-2.617-4.774-3.819-7.067l-.064-.141h36.931z"/><path fill="#8baa36" d="M336.645 290.352c0 .056-7.054.093-15.757.093-8.704 0-15.769 0-15.769-.093 0-.094 7.054-.094 15.769-.094s15.757.037 15.757.094M337.284 289.556c0 .056-7.31.094-16.322.094s-16.321 0-16.321-.094 7.299-.103 16.321-.103 16.322.047 16.322.103"/><path fill="#ebebeb" d="M350.829 318.178h-59.638v51.395h59.638z"/><path fill="#263238" d="M291.192 318.178h13.034l36.282-.066L465.209 318h.266v51.864h-.277l-174.017-.084H291v-.253c0-16.127.074-29.016.106-37.833V318.14v13.694c0 8.817.064 21.64.107 37.73l-.192-.159 174.017-.084-.276.243v-51.386l.276.234-124.488-.112-36.356-.066h-12.279z"/><path fill="#8baa36" d="M396.921 327.397h-34.526v4.137h34.526z"/><path fill="#e0e0e0" d="M453.462 337.6h-91.067v2.649h91.067zM453.462 342.898h-91.067v2.648h91.067z"/><path fill="#8baa36" d="M429.256 358.548h-1.723v1.478h-1.277v-1.478h-1.724v-1.058h1.724v-1.488h1.277v1.488h1.723zM438.523 354.963v6.14h-1.607v-4.97h-1.383V355zM445.461 358.07h2.809v1.086h-2.809z"/><path fill="#263238" d="M453.463 365.062v-1.03c0-.692 0-1.656-.054-2.873 0-2.499-.064-6.056-.106-10.418l.202.178-34.399.066.277-.244v14.302l-.266-.224 24.631.103 7.161.065h2.607a5 5 0 0 1-.617 0h-1.873l-7.097.066-24.812.112h-.266v-14.358c-.064 0 .521-.468.276-.253l34.399.066h.203v.187c0 4.408-.075 8.003-.107 10.53 0 1.198 0 2.143-.053 2.808v.72c-.085.122-.096.206-.106.197"/><path fill="#e0e0e0" d="M369.342 360.494a4 4 0 0 1-2.181.805v1.245h-1.266v-1.217a7.3 7.3 0 0 1-1.777-.29 4.4 4.4 0 0 1-1.362-.599l.691-1.348c.344.216.72.389 1.118.515.426.146.874.237 1.33.272v-1.872a12 12 0 0 1-1.511-.422 2.7 2.7 0 0 1-1.064-.683 1.72 1.72 0 0 1-.415-1.198 1.9 1.9 0 0 1 .195-.861c.131-.273.326-.518.571-.721a3.96 3.96 0 0 1 2.202-.805v-1.226h1.267v1.208c.9.039 1.777.27 2.553.673l-.628 1.367a5.5 5.5 0 0 0-1.925-.571v1.872a10.6 10.6 0 0 1 1.489.403c.412.148.777.383 1.064.683.291.338.438.755.415 1.179.007.298-.058.594-.19.868a2.1 2.1 0 0 1-.576.723m-4.139-4.408c.204.143.439.249.692.309v-1.582a1.54 1.54 0 0 0-.713.318.67.67 0 0 0-.224.506.5.5 0 0 0 .062.25.6.6 0 0 0 .183.199m2.628 3.454a.6.6 0 0 0 .176-.217.6.6 0 0 0 .058-.261.5.5 0 0 0-.057-.249.56.56 0 0 0-.177-.2 2.1 2.1 0 0 0-.67-.309v1.526c.252-.034.486-.136.67-.29M378.014 360.494a3.96 3.96 0 0 1-2.181.805v1.245h-1.266v-1.217a7.3 7.3 0 0 1-1.777-.29 4.4 4.4 0 0 1-1.362-.599l.691-1.348a4.8 4.8 0 0 0 1.128.515c.423.145.867.237 1.32.272v-1.872q-.774-.164-1.511-.422a2.7 2.7 0 0 1-1.064-.683 1.72 1.72 0 0 1-.426-1.198 1.9 1.9 0 0 1 .195-.861 2.2 2.2 0 0 1 .571-.721 3.96 3.96 0 0 1 2.203-.805v-1.226h1.266v1.208c.904.04 1.783.271 2.564.673l-.638 1.367a5.5 5.5 0 0 0-1.926-.571v1.872a10.6 10.6 0 0 1 1.489.403c.414.146.78.381 1.064.683.291.338.438.755.415 1.179.008.297-.055.592-.185.867a2.1 2.1 0 0 1-.57.724m-4.139-4.408c.205.142.44.247.692.309v-1.582a1.45 1.45 0 0 0-.703.318.68.68 0 0 0-.234.506.5.5 0 0 0 .062.25.6.6 0 0 0 .183.199m2.639 3.454a.65.65 0 0 0 .168-.219.6.6 0 0 0 .055-.259.5.5 0 0 0-.057-.249.56.56 0 0 0-.177-.2 2 2 0 0 0-.67-.309v1.526c.255-.034.492-.135.681-.29"/><path fill="#263238" d="M350.871 370.051c-.159 0-.276-11.55-.276-25.787s.117-25.777.276-25.777.277 11.541.277 25.777-.106 25.787-.277 25.787"/><path fill="#455a64" d="M323.909 341.147c1.026-1.21 1.659-2.644 1.83-4.146a6.05 6.05 0 0 0-.723-3.931c-.053-.085-.106-.178-.213-.206a.47.47 0 0 0-.319 0 5.25 5.25 0 0 0-2.108 1.631 4.4 4.4 0 0 0-.893 2.341c-.059.836.135 1.67.561 2.419a5 5 0 0 0 1.865 1.846M327.218 337.703c1.215-.406 2.282-1.095 3.086-1.994.769-.791 1.241-1.772 1.351-2.808a.24.24 0 0 0 0-.206.35.35 0 0 0-.223-.084 4.6 4.6 0 0 0-2.097.286 4 4 0 0 0-1.651 1.173 3.35 3.35 0 0 0-.76 1.743c-.074.63.042 1.265.337 1.843"/><path fill="#8baa36" d="M326.655 341.044a1.73 1.73 0 0 0-.077-1.024 1.96 1.96 0 0 0-.658-.848 3.6 3.6 0 0 0-2.128-.664c-.689-.02-1.37.14-1.957.458a2.5 2.5 0 0 0-.749.618 2.2 2.2 0 0 0-.422.824c-.071.376-.034.762.109 1.122s.388.682.711.937c.654.507 1.5.781 2.372.768a3.13 3.13 0 0 0 1.99-.646 2.3 2.3 0 0 0 .606-.701c.146-.267.23-.557.245-.853"/><path fill="#455a64" d="M334.156 342.926c2.948.458 5.874-2.415 6.576-4.278a.58.58 0 0 0 0-.599.784.784 0 0 0-.702-.14c-1.457.173-2.811.754-3.863 1.656-1.047.909-1.743 2.085-1.989 3.361"/><path fill="#8baa36" d="M315.93 337.459a1.73 1.73 0 0 0-.077-1.024 1.96 1.96 0 0 0-.658-.848 3.67 3.67 0 0 0-2.128-.664 4 4 0 0 0-1.957.468 2.3 2.3 0 0 0-.837.701c-.21.29-.339.62-.374.962-.036.342.023.687.171 1.005.147.318.38.601.678.823.656.511 1.507.785 2.383.768a3.12 3.12 0 0 0 1.99-.646 2.3 2.3 0 0 0 .606-.701c.146-.267.23-.557.245-.853"/><path fill="#455a64" d="M322.271 342.065c-.231-1.497-.918-2.911-1.99-4.091-.911-1.096-2.181-1.922-3.639-2.368a.5.5 0 0 0-.308 0 .4.4 0 0 0-.126.098.3.3 0 0 0-.066.136 4.2 4.2 0 0 0-.211 2.461 4.55 4.55 0 0 0 1.22 2.222 5.5 5.5 0 0 0 2.322 1.385 6.1 6.1 0 0 0 2.798.175M311.504 339.753a13 13 0 0 1-1.554-1.872 3.95 3.95 0 0 1-.659-2.247.4.4 0 0 1 .032-.171.4.4 0 0 1 .106-.147.54.54 0 0 1 .383 0c1.662.33 3.166 1.109 4.3 2.229 1.133 1.119 1.84 2.523 2.02 4.014l.085.393c-1.405.726-3.076.944-4.66.609a10.8 10.8 0 0 1-3.596-1.245c-1.097-.634-1.877-1.611-2.182-2.733a7.9 7.9 0 0 1 3.01.028 7.4 7.4 0 0 1 2.715 1.142M329.879 337.469c1.453-1.194 3.26-2.003 5.213-2.331a5.8 5.8 0 0 1-.226 2.559 6.3 6.3 0 0 1-1.326 2.286 7.3 7.3 0 0 1-2.223 1.663 8.2 8.2 0 0 1-2.779.784l-.117-.188a4.22 4.22 0 0 1-.028-2.565 4.7 4.7 0 0 1 1.486-2.208"/><path fill="#fafafa" d="M340.061 341.072c-1.119 3.823-3.13 7.4-5.905 10.502-6.523 7.067-21.28 5.102-25.249-.43-1.543-2.116-5.607-9.997-5.607-9.997z"/><path fill="#263238" d="M340.061 341.072h-10.608l-26.196.103.096-.14a221 221 0 0 0 3.809 7.067c.351.617.713 1.226 1.064 1.872.341.602.755 1.17 1.234 1.694a10.8 10.8 0 0 0 3.49 2.443 21 21 0 0 0 8.171 1.872 20.6 20.6 0 0 0 7.555-1.095c2.085-.734 3.934-1.907 5.384-3.417a27.4 27.4 0 0 0 4.809-7.432c.415-.936.692-1.703.872-2.209l.256-.786a18.5 18.5 0 0 1-1.064 3.024 27.4 27.4 0 0 1-4.767 7.488c-1.462 1.537-3.333 2.733-5.448 3.481a20.6 20.6 0 0 1-7.628 1.124 21 21 0 0 1-8.268-1.872 11 11 0 0 1-3.554-2.49 10.4 10.4 0 0 1-1.266-1.722 44 44 0 0 1-1.064-1.872c-1.362-2.397-2.617-4.774-3.819-7.067l-.064-.141h36.931z"/><path fill="#8baa36" d="M337.645 346.352c0 .056-7.054.093-15.757.093-8.704 0-15.769 0-15.769-.093 0-.094 7.054-.094 15.769-.094s15.757.037 15.757.094M338.284 345.556c0 .056-7.31.094-16.322.094s-16.321 0-16.321-.094 7.299-.103 16.321-.103 16.322.047 16.322.103"/><path fill="#fafafa" d="M170.176 102.258h78.098c1.481 0 2.902.518 3.949 1.439 1.048.922 1.637 2.172 1.637 3.475v68.702c0 1.304-.589 2.553-1.637 3.475-1.047.922-2.468 1.439-3.949 1.439h-58.169c-5.32 3.969-15.482 11.962-15.482 11.962l-.755-11.962h-3.692c-1.48-.002-2.898-.521-3.943-1.442-1.045-.922-1.632-2.17-1.632-3.472v-68.702c0-1.302.587-2.55 1.632-3.471s2.463-1.441 3.943-1.443"/><path fill="#263238" d="M170.176 102.258a9 9 0 0 0-1.788.299 5.8 5.8 0 0 0-2.188 1.267 4.87 4.87 0 0 0-1.302 2 11.9 11.9 0 0 0-.202 3.398v14.377c0 7.666 0 16.96.064 27.593v23.737a6.9 6.9 0 0 0 .213 2.256c.239.73.677 1.398 1.276 1.946a5.5 5.5 0 0 0 2.161 1.199 8.3 8.3 0 0 0 2.617.243h3v.197c.245 3.744.501 7.815.767 11.971l-.426-.159 15.566-11.934.075-.056h58.647a5.73 5.73 0 0 0 3.018-1.078c.853-.628 1.461-1.475 1.738-2.423.154-.643.212-1.3.171-1.956v-66.962q.022-.81-.053-1.619a4.2 4.2 0 0 0-.532-1.488c-.536-.928-1.409-1.672-2.48-2.115a6 6 0 0 0-1.67-.431h-25.196l-39.155-.075 39.155-.075h25.249c.95.101 1.858.404 2.644.884a5.44 5.44 0 0 1 1.867 1.868c.297.507.491 1.055.575 1.619q.102.837.064 1.676v66.858a7 7 0 0 1-.192 2.078 4.8 4.8 0 0 1-1.064 1.872 5.7 5.7 0 0 1-1.852 1.376c-.72.339-1.514.54-2.329.59h-58.51l.181-.056c-5.32 4.127-10.64 8.162-15.491 11.952l-.394.309v-.468c-.256-4.156-.511-8.218-.745-11.962l.245.206h-2.767a9 9 0 0 1-2.777-.271 6 6 0 0 1-2.343-1.318 5.05 5.05 0 0 1-1.391-2.117 7.2 7.2 0 0 1-.224-2.369v-23.736c0-10.633 0-19.928.053-27.594V109.39a11.9 11.9 0 0 1 .245-3.435 4.84 4.84 0 0 1 1.348-2.039 5.76 5.76 0 0 1 2.27-1.256 6.5 6.5 0 0 1 1.351-.224z"/><path fill="#bfe25d" d="m228.238 140.344-2.83 12.215 9.214-.188z"/><path fill="#000" d="m228.238 140.344-2.83 12.215 9.214-.188z" opacity=".3"/><path fill="#bfe25d" d="m188.721 140.737 2.83 12.215-9.225-.187z"/><path fill="#000" d="m188.721 140.737 2.83 12.215-9.225-.187z" opacity=".3"/><path fill="#afe814" d="M212.332 143.002c-.301 0-.589-.102-.806-.285a.97.97 0 0 1-.354-.698l-1.351-28.613a.9.9 0 0 1 .079-.404q.086-.196.251-.346c.109-.099.24-.178.384-.233.144-.054.299-.083.456-.084h1.628c.153 0 .305.026.446.078q.214.079.378.224.163.144.251.334a.9.9 0 0 1 .085.393l-.277 28.614a.97.97 0 0 1-.346.722 1.26 1.26 0 0 1-.824.298"/><path fill="#bfe25d" d="M213.789 115.989h-3.841v2.48h3.841z"/><path fill="#afe814" d="M214.927 143.114a1.13 1.13 0 0 1-.65-.514.92.92 0 0 1-.063-.768l9.906-27.275q.072-.2.226-.361a1.2 1.2 0 0 1 .369-.253 1.3 1.3 0 0 1 .916-.041l1.522.487c.291.096.527.29.656.539.13.249.142.533.035.79l-11.427 26.788c-.11.252-.327.456-.605.569a1.33 1.33 0 0 1-.885.039"/><path fill="#bfe25d" d="m223.248 117.014-.968 2.33 3.608 1.16.968-2.33z"/><path fill="#e0e0e0" d="M226.036 135.842a7.4 7.4 0 0 0-2.297-1.993 8.4 8.4 0 0 0-3.023-.993 12.17 12.17 0 0 0-6.171.936c-1.5.627-3.054 1.497-4.66 1.207a9.7 9.7 0 0 1-3.054-1.525 11.7 11.7 0 0 0-3.973-1.481 12.3 12.3 0 0 0-4.316.002c-2.939.594-5.508 2.154-7.182 4.361a6.64 6.64 0 0 0-1.422 2.738 6.2 6.2 0 0 0 .018 3.01l36.729-.113c.435-1 .603-2.075.491-3.141a6.44 6.44 0 0 0-1.14-3.008"/><path fill="#263238" d="M225.057 141.336a10 10 0 0 0 0-1.591c-.164-1.435-.921-2.768-2.128-3.744-.837-.643-1.883-1.039-2.99-1.133a9.6 9.6 0 0 0-3.766.468c-1.277.393-2.49 1.123-3.937 1.638a6.5 6.5 0 0 1-2.362.384 6.9 6.9 0 0 1-2.383-.58c-1.49-.628-2.735-1.479-4.054-2.078a8.7 8.7 0 0 0-4.075-.796 8.95 8.95 0 0 0-3.629.936 8.3 8.3 0 0 0-2.479 1.966 9 9 0 0 0-1.968 3.912c-.213 1.011-.202 1.591-.256 1.582a1.1 1.1 0 0 1 0-.412 7 7 0 0 1 .086-1.198c.237-1.475.876-2.879 1.862-4.09a8.6 8.6 0 0 1 2.564-2.106 9.35 9.35 0 0 1 3.841-1.067 9.2 9.2 0 0 1 4.341.823c1.383.618 2.639 1.47 4.043 2.06a6.5 6.5 0 0 0 2.128.533c.729.018 1.455-.1 2.128-.346 1.362-.468 2.607-1.208 3.958-1.61a10 10 0 0 1 3.99-.449c1.192.119 2.309.568 3.192 1.282 1.235 1.058 1.962 2.491 2.033 4.006q.028.603-.086 1.198c.011.243-.031.412-.053.412"/><path fill="#263238" d="M223.312 141.682q.042-.693 0-1.385a4 4 0 0 0-.623-1.761 4.6 4.6 0 0 0-1.398-1.375 4.2 4.2 0 0 0-2.714-.561 9 9 0 0 0-3.064 1.16 14 14 0 0 1-3.468 1.535 7.53 7.53 0 0 1-4.182-.346c-2.671-.936-4.788-2.49-7.139-2.901a7 7 0 0 0-3.073.126 6.35 6.35 0 0 0-2.62 1.418c-.986.915-1.673 2.046-1.99 3.276-.234.87-.223 1.385-.276 1.376s0-.122 0-.365q.005-.528.106-1.049c.249-1.297.913-2.505 1.915-3.481a6.9 6.9 0 0 1 2.554-1.517 7.07 7.07 0 0 1 3.533-.262c2.521.431 4.681 2.013 7.235 2.892a7.06 7.06 0 0 0 3.841.337 14 14 0 0 0 3.341-1.46 9.2 9.2 0 0 1 3.266-1.179 4.6 4.6 0 0 1 3.001.683 4.25 4.25 0 0 1 1.585 1.76c.255.518.399 1.074.426 1.638.008.368-.034.736-.128 1.095a1 1 0 0 1-.128.346"/><path fill="#263238" d="M221.035 141.692a2.34 2.34 0 0 0-.235-1.058 2.2 2.2 0 0 0-1.098-1.014 2.62 2.62 0 0 0-1.583-.156 7 7 0 0 0-2.128.805 14 14 0 0 1-2.49 1.142c-2.134.454-4.384.19-6.309-.74a36.4 36.4 0 0 0-5.746-2.171 6.6 6.6 0 0 0-2.458-.193c-.826.09-1.62.335-2.33.717-.934.561-1.622 1.387-1.947 2.34-.223.683-.17 1.095-.234 1.095a1 1 0 0 1-.053-.29 3 3 0 0 1 .074-.852c.268-1.037.956-1.952 1.937-2.574a6.7 6.7 0 0 1 2.478-.838 7 7 0 0 1 2.65.155 34.5 34.5 0 0 1 5.852 2.171c1.808.873 3.913 1.139 5.927.749.843-.28 1.652-.635 2.415-1.057a7.1 7.1 0 0 1 2.288-.796 3.1 3.1 0 0 1 2.032.328c.434.264.771.635.968 1.067.121.27.165.563.128.851a.5.5 0 0 1-.138.319"/><path fill="#bfe25d" d="M188.657 140.634c0 .833 6.746 31.318 6.746 31.318l26.462-.383 6.384-31.225z"/><path fill="#263238" d="M188.657 140.634q.368-.021.734 0l2.203-.047 8.278-.121 28.366-.328h.447l-.202.356-4.097 7.16c-1.17 2.04-2.319 4.053-3.436 5.99l-.075.141h-.17l-24.664-.066h-.127v-.093a1968 1968 0 0 1-5.32-9.529l-1.415-2.555-.362-.665a1 1 0 0 1-.096-.206l.149.234.415.684 1.532 2.564c1.309 2.247 3.192 5.41 5.469 9.304l-.181-.103 24.664-.056-.245.131 3.437-6 4.096-7.151.245.347-28.132.075h-10.64z"/><path fill="#000" d="m196.744 153.504.67 1.264h23.994l6.203-13.32-6.906 12.056z" opacity=".3"/><path fill="#fafafa" d="M213.864 166.336a23 23 0 0 1-4.692.244 23 23 0 0 1-4.693-.244 23 23 0 0 1 4.693-.243 23.2 23.2 0 0 1 4.692.243M212.182 161.479s-.064-.234-.202-.637a2.73 2.73 0 0 0-1.128-1.366 3.1 3.1 0 0 0-1.301-.456 3.3 3.3 0 0 0-1.391.137 2.9 2.9 0 0 0-1.009.575 2.5 2.5 0 0 0-.647.89 2.2 2.2 0 0 0-.169 1.047c.03.356.146.701.34 1.014s.464.585.788.799c.325.213.698.363 1.094.438s.806.076 1.202 0a3 3 0 0 0 1.093-.438 2.7 2.7 0 0 0 1.128-1.367c.138-.393.149-.636.202-.636.069.223.069.459 0 .683-.126.628-.503 1.196-1.064 1.6a3.5 3.5 0 0 1-1.486.584 3.7 3.7 0 0 1-1.621-.125 3.3 3.3 0 0 1-1.594-1.064 2.68 2.68 0 0 1-.605-1.678c0-.601.211-1.188.605-1.679a3.3 3.3 0 0 1 1.594-1.064 3.6 3.6 0 0 1 1.624-.127 3.4 3.4 0 0 1 1.483.595c.562.399.94.965 1.064 1.591.069.224.069.46 0 .684"/><path fill="#263238" d="M196.84 129.833a1.2 1.2 0 0 0 .398-.244c.112-.104.197-.229.251-.365a1.23 1.23 0 0 0 0-.936 5 5 0 0 0-.894-1.132c-.756-.82-1.116-1.867-1.003-2.918.114-1.05.692-2.019 1.609-2.698.628-.515 1.352-1.021 1.437-1.713a2.3 2.3 0 0 0-.305-1.036 2.65 2.65 0 0 0-.759-.836 7.4 7.4 0 0 1-1.543-1.788 4.17 4.17 0 0 1-.149-3.744c.367-.802.996-1.489 1.809-1.975a2.2 2.2 0 0 1 .947-.402s-.309.177-.82.552a4.74 4.74 0 0 0-1.574 1.947 3.9 3.9 0 0 0-.278 1.739 4 4 0 0 0 .522 1.696 7.8 7.8 0 0 0 1.49 1.666q.472.429.83.936c.27.383.39.833.34 1.282a2.15 2.15 0 0 1-.649 1.189q-.465.43-.978.814c-.805.614-1.319 1.47-1.442 2.401-.122.93.157 1.867.782 2.626.359.374.653.794.872 1.244.163.364.163.769 0 1.133-.108.229-.314.41-.574.505-.234.085-.319.066-.319.057M200.915 129.833a1.2 1.2 0 0 0 .398-.244 1 1 0 0 0 .251-.365 1.23 1.23 0 0 0 0-.936 5 5 0 0 0-.894-1.132c-.756-.82-1.116-1.867-1.002-2.918.113-1.05.691-2.019 1.609-2.698.627-.515 1.351-1.021 1.436-1.713a2.3 2.3 0 0 0-.305-1.036 2.6 2.6 0 0 0-.759-.836 7.1 7.1 0 0 1-1.532-1.788 4.15 4.15 0 0 1-.533-1.857c-.028-.645.1-1.288.373-1.887.374-.798 1.002-1.484 1.809-1.975.274-.205.604-.344.958-.402 0 0-.319.177-.83.552a4.7 4.7 0 0 0-1.564 1.947 3.86 3.86 0 0 0 .244 3.435 7.4 7.4 0 0 0 1.479 1.666q.473.429.83.936c.27.383.39.833.341 1.282a2.1 2.1 0 0 1-.649 1.189c-.319.309-.66.561-.968.814a3.6 3.6 0 0 0-1.299 1.694 3.26 3.26 0 0 0-.142 1.735c.111.58.379 1.128.781 1.598.356.374.647.794.862 1.244.168.363.168.77 0 1.133-.108.229-.315.41-.575.505-.223.085-.319.066-.319.057"/><path fill="#fafafa" d="m78.779 408.882-7.406 42.364h8.459l14.29-42.364zM262.616 408.882l7.406 42.364h-8.47l-14.279-42.364z"/><path fill="#535455" d="M40.294 296.515c-.596 19.114-6.235 103.428 13.417 119.481h24.408c6.384 0 6.022-2.649 5.777-8.237l-4.639-109.4c-.075-2.104-.922-4.13-2.415-5.775-3.192-3.482-9.65-8.864-18.492-8.34-4.772.203-9.39 1.549-13.354 3.894-1.479.971-2.676 2.237-3.493 3.693a9.3 9.3 0 0 0-1.21 4.684"/><path fill="#535455" d="m261.51 417.222-183.39-1.226v-49.842h183.39z"/><path fill="#535455" d="m260.786 366.154-183.72 1.329v-29.896l184.444-3.042z"/><path fill="#535455" d="M43.763 290.909s1.362-41.502 53.285-43.646 128.967 0 128.967 0 65.223-2.153 66.734 33.986l-12.959 69.264H78.406z"/><path fill="#535455" d="M300.463 300.924c-1.373 28.604-4.373 112.507-26.994 116.298h-16.822l5.203-122.56s7.8-11.962 20.791-11.232h.394c4.917.357 9.485 2.381 12.737 5.646 3.252 3.264 4.934 7.513 4.691 11.848"/><path fill="#202324" d="m291.195 285.209-.617-.131-1.756-.422-1.276-.308-1.596-.216c-.575-.065-1.192-.168-1.852-.234h-2.128c-3.633.026-7.207.812-10.427 2.293l-.713.309-.691.375-1.405.777a31 31 0 0 0-2.703 1.872 26.2 26.2 0 0 0-4.894 4.988v-.084c-.681 12.664-1.532 28.661-2.458 46.014-1.064 21.125-1.84 40.248-2.277 54.11-.202 6.917-.351 12.514-.468 16.408 0 1.919-.096 3.426-.117 4.465 0 .496 0 .88-.053 1.161-.053.28 0 .393 0 .393v-6.019c0-3.875.138-9.481.298-16.408.351-13.862 1.064-33.003 2.128-54.129.883-17.363 1.809-33.368 2.553-46.014a.1.1 0 0 1 0-.074 26.1 26.1 0 0 1 4.991-5.036 30 30 0 0 1 2.755-1.919l1.426-.786.702-.374.724-.309c3.271-1.482 6.897-2.252 10.576-2.247l2.128.066c.66.065 1.277.178 1.862.252l1.596.234 1.277.337 1.745.478z"/><path fill="#202324" d="M78.406 367.352h13.928l37.995.084c32.08.103 76.396.412 125.329-.206h2.032l-.266.216c.181-5.111.351-10.165.522-15.136l.255-7.413.128-3.659c0-.6.064-1.227 0-1.798a3.46 3.46 0 0 0-.532-1.647 4.4 4.4 0 0 0-1.309-1.299 5 5 0 0 0-1.798-.713 9.8 9.8 0 0 0-2.054-.103h-10.448l-16.109.093-55.701.506c-15.843.14-28.653.196-37.506.206h-13.736 3.554l10.182-.066 37.506-.346 55.69-.609 16.12-.103h10.448c.712-.037 1.427 0 2.128.113.72.138 1.399.409 1.991.794a4.8 4.8 0 0 1 1.446 1.443c.354.557.558 1.178.596 1.816v1.872c0 1.207-.075 2.433-.117 3.659l-.256 7.404q-.255 7.488-.51 15.145a.25.25 0 0 1-.09.149.3.3 0 0 1-.176.066h-2.022c-48.944.618-93.26.262-125.339.075l-37.996-.215-10.331-.066h-2.681z"/><path fill="#000" d="M77.065 367.483c42.092 8.031 62.138 7.422 101.272 8.012 35.112.534 73.767-5.036 79.353-8.349z" opacity=".2"/><path fill="#202324" d="M78.118 415.996a3 3 0 0 1 0-.412v-5.897c0-4.081.096-9.931.17-17.157.203-14.508.469-34.51.767-56.6.18-11.054.34-21.584.49-31.159a18.6 18.6 0 0 0-1.065-6.842 19.8 19.8 0 0 0-3.383-5.775 22.7 22.7 0 0 0-4.98-4.212 23.9 23.9 0 0 0-5.682-2.462 24.1 24.1 0 0 0-10.884-.384c-2.727.512-5.31 1.498-7.597 2.902a16.5 16.5 0 0 0-3.756 3.229c-.724.852-1.011 1.357-1.064 1.339q.084-.193.213-.365.339-.534.744-1.03a15.6 15.6 0 0 1 3.714-3.332c2.294-1.45 4.901-2.473 7.66-3.005a24.3 24.3 0 0 1 11.066.318 24.4 24.4 0 0 1 5.852 2.49 23.4 23.4 0 0 1 5.107 4.278c3.175 3.688 4.779 8.239 4.533 12.86-.138 9.585-.287 20.115-.447 31.169-.362 22.09-.691 42.12-.926 56.591-.149 7.226-.266 13.104-.35 17.157 0 2.012-.086 3.575-.118 4.68v1.216q-.015.204-.064.403"/><path fill="#8baa36" d="M181.295 328.265a326 326 0 0 1 6.491-58.547c.595-2.949 1.383-6.122 3.979-8.05 2.234-1.666 5.32-2.031 8.235-2.237 20.908-1.497 42.22 6.711 61.202 15.603 2.082.971 3.762 2.495 4.799 4.356s1.38 3.963.978 6.006c-3.192 16.005-9.576 28.08-18.971 43.365-21.337 7.609-44.773 9.434-67.298 5.241"/><path fill="#202324" d="M143.832 183.634c-1.32-8.246-1.234-7.975-2.405-15.865-2.255-15.313-7.746-32.676-32.59-31.422 0 0-18.716.936-24.472 12.692-3.064 6.346-3.873 28.305-4.905 48.055a3 3 0 0 1-.213.936l-1.16 2.985a39.6 39.6 0 0 0-2.67 12.168l-1.575 27.416c-.052.903.305 1.788.993 2.46s1.651 1.076 2.678 1.125c8.373.355 27.504-.581 31.186-1.751 7.552-2.434 14.42-6.268 20.141-11.242s10.158-10.972 13.013-17.586c.383-.936 5.799-1.339 6.82-1.685 1.681-.571-4.586-26.714-4.841-28.286"/><path fill="#ffbf9d" d="m104.049 143.414 1.574-1.282 16.737 6.158c1.171.071 2.269.525 3.077 1.274s1.267 1.738 1.286 2.77l-.916 48.101c0 3.267 1.064 7.039-1.255 9.613l-2.724 3.36c-5.469 6.178-18.088 3.941-22.227-2.986a4.7 4.7 0 0 1-.574-1.254 8 8 0 0 1-.234-1.076c-.437-3.876-.415-7.236-.415-7.236-.234-4.249-.298-6-.309-5.953-.01.047-10.257-1.151-12.853-12.842-1.288-5.784-.904-13.731-.394-21.528.713-10.773 9.342-17.25 19.227-17.119"/><path fill="#202324" d="M106.677 168.368c.011.392.197.765.517 1.038s.75.424 1.196.422c.217.009.434-.021.638-.087s.391-.168.55-.299a1.4 1.4 0 0 0 .374-.463c.089-.175.136-.364.14-.555a1.43 1.43 0 0 0-.516-1.042 1.85 1.85 0 0 0-1.197-.428 1.9 1.9 0 0 0-.639.091 1.7 1.7 0 0 0-.55.301q-.239.2-.373.466a1.3 1.3 0 0 0-.14.556M89.524 168.48c.012.392.197.765.518 1.038.32.273.75.425 1.195.422.218.009.435-.021.639-.087s.39-.168.55-.299c.158-.131.286-.288.374-.463s.136-.363.14-.555a1.43 1.43 0 0 0-.517-1.041 1.84 1.84 0 0 0-1.196-.428 1.8 1.8 0 0 0-.64.09c-.204.068-.39.17-.549.302a1.44 1.44 0 0 0-.374.465 1.3 1.3 0 0 0-.14.556M86.535 163.632c.213.196 1.479-.693 3.309-.74s3.192.711 3.405.506c.213-.206-.128-.44-.734-.796a5.14 5.14 0 0 0-2.735-.646 4.85 4.85 0 0 0-2.628.833c-.553.403-.734.758-.617.843M105.155 164.034c.245.168 1.394-.824 3.192-1.048s3.278.421 3.448.196-.181-.421-.83-.72a5.27 5.27 0 0 0-2.798-.403 4.84 4.84 0 0 0-2.511 1.076c-.479.45-.618.824-.501.899M98.558 175.706a14 14 0 0 0-3-.374c-.479 0-.926-.094-1.064-.375a1.83 1.83 0 0 1 .266-1.235c.393-1.011.808-2.078 1.255-3.183 1.745-4.539 2.98-8.265 2.777-8.321s-1.787 3.566-3.532 8.106l-1.202 3.201a2.12 2.12 0 0 0-.17 1.629c.072.141.181.266.318.365.136.099.297.17.469.206.264.058.536.084.808.075 1.026.086 2.06.055 3.075-.094"/><path fill="#ff9a6c" d="M98.068 194.875c6.274-.12 12.387-1.766 17.663-4.755 0 0-4.15 8.247-17.524 7.582zM99.495 179.581c.332-.401.775-.72 1.288-.926a3.7 3.7 0 0 1 1.638-.253c.408.021.807.116 1.173.276.365.161.69.385.955.66.254.264.411.589.451.933a1.54 1.54 0 0 1-.228.995 2.3 2.3 0 0 1-1.092.623 2.54 2.54 0 0 1-1.302-.015 7.3 7.3 0 0 1-2.362-1.179 1.9 1.9 0 0 1-.543-.459.5.5 0 0 1-.102-.299c0-.107.036-.211.103-.3"/><path fill="#202324" d="M104.006 176.651c-.298 0-.223 1.751-1.883 3.052s-3.788 1.17-3.788 1.422c0 .103.479.319 1.383.319 1.176-.023 2.305-.407 3.192-1.086.829-.645 1.341-1.548 1.426-2.518.053-.777-.192-1.198-.33-1.189M103.485 156.181c.245.412 2.032 0 4.203-.047 2.17-.047 3.979.262 4.256-.159.095-.206-.266-.58-1.064-.936a7.8 7.8 0 0 0-3.192-.571 8 8 0 0 0-3.192.73c-.777.393-1.118.786-1.011.983M86.908 156.705c.34.356 1.585-.065 3.107-.131 1.521-.065 2.82.15 3.096-.243.127-.187-.096-.553-.67-.88a5 5 0 0 0-2.552-.516 4.9 4.9 0 0 0-2.45.815c-.52.394-.68.777-.531.955"/><path fill="#202324" d="M126.01 172.861s-9.438 2.452-14.439-18.028c-1.702-7.001-8.969-12.739-8.969-12.739l2.989-.758s18.471 4.83 18.78 5.036 4.543 8.489 4.543 8.489z"/><path fill="#ffbf9d" d="M123.711 172.065c0-.871 1.064-2.958 2-3.126 2.596-.44 7.321-.403 7.608 5.428.383 7.985-8.81 6.684-8.831 6.45-.022-.234-.66-5.738-.777-8.752"/><path fill="#ff9a6c" d="M127.106 177.69s.17.094.436.187a1.76 1.76 0 0 0 1.181 0c.947-.346 1.692-1.712 1.66-3.154a4.14 4.14 0 0 0-.532-1.975 1.6 1.6 0 0 0-.48-.645 1.9 1.9 0 0 0-.765-.375.9.9 0 0 0-.542.062.76.76 0 0 0-.373.35c-.106.234 0 .384-.096.402s-.191-.131-.138-.458a.9.9 0 0 1 .33-.515c.243-.171.551-.255.862-.234.374.052.728.186 1.027.391.3.204.536.472.686.779.423.677.65 1.436.659 2.209 0 1.61-.84 3.154-2.128 3.528a1.9 1.9 0 0 1-1.457-.149c-.298-.206-.352-.384-.33-.403"/><path fill="#202324" d="M119.7 168.873a13 13 0 0 1-1.351-.253 8.5 8.5 0 0 1-3.192-1.694 10 10 0 0 1-1.66-1.75 13 13 0 0 1-1.33-2.349 44 44 0 0 1-1.862-5.822c-.607-2.088-1.266-4.063-2-5.822a30.6 30.6 0 0 0-2.288-4.531 22 22 0 0 0-2.032-2.808c-.266-.327-.49-.552-.639-.72a2 2 0 0 0-.234-.234q.088.139.202.262c.128.168.352.412.596.739a27 27 0 0 1 1.958 2.808 32.3 32.3 0 0 1 2.234 4.531c.713 1.75 1.362 3.744 1.969 5.803a44 44 0 0 0 1.883 5.85c.367.827.827 1.621 1.373 2.368a10.4 10.4 0 0 0 1.713 1.769 8.3 8.3 0 0 0 3.287 1.657c.445.124.907.19 1.373.196"/><path fill="#8baa36" d="m146.991 211.836-20.216-6.712-28.728-5.503-23.142 2.695c-4.883.094-13.342 9.117-19.78 18.795-5.766 8.668-10.31 17.382-10.31 17.382l26.93 8.854c1.532 10.081 3.788 23.4 5.735 28.651 3.32 8.977 4.33 21.294 4.33 21.294l63.958-7.338.904-38.647 21.035-2.415c.011-1.357-8.107-33.612-20.716-37.056"/><path fill="#202324" d="M145.374 227.326q.001.474.117.936c.106.618.255 1.517.415 2.621.408 2.894.614 5.808.617 8.724a64 64 0 0 1-.639 8.714 89 89 0 0 1-.415 2.63 4.4 4.4 0 0 0-.127.936q.21-.453.298-.936c.17-.618.361-1.507.564-2.621a49.8 49.8 0 0 0 0-17.512 38 38 0 0 0-.554-2.612 3.8 3.8 0 0 0-.276-.88"/><path fill="#ffbf9d" d="m166.899 249.444-20.78 1.975.33 5.017-4.617-5.822-6.97 12.72s2.809 7.432 4.331 11.532c4.054 10.998 10.533 23.269 18.088 22.464 9.097-.936 15.534-10.54 15.236-16.689-.244-5.56-5.618-31.197-5.618-31.197M176.635 322.349l36.038 12.43-13.705 14.574-30.654-4.69z"/><path fill="#202324" d="M81.928 296.637s-.947 36.158 2.82 42.448 40.198 6.552 40.198 6.552l57.456 2.564 6.703-23.643s-41.805-17.073-45.752-19.048-13.289-5.428-13.289-5.428l-14.066-15.912z"/><path fill="#535455" d="M148.3 346.03a3 3 0 0 0-.458-.141l-1.319-.337-4.916-1.188-16.524-3.866h-.063a28 28 0 0 1-2.767-.159 24 24 0 0 1-5.213-1.076 26.5 26.5 0 0 1-4.512-1.872c-4.085-2.148-7.403-5.261-9.576-8.986-.308-.524-.5-.936-.66-1.236a1.9 1.9 0 0 0-.255-.43q.059.237.17.459c.128.29.298.739.586 1.282a21 21 0 0 0 3.075 4.296c1.83 1.949 4.016 3.616 6.469 4.933a26.3 26.3 0 0 0 4.585 1.919 27 27 0 0 0 2.575.692q1.35.271 2.724.412 1.41.147 2.83.159l16.567 3.744 4.947 1.067 1.341.272q.192.049.394.056"/><path fill="#202324" d="m146.587 307.635 9.789-52.641s-1.298-37.889 22.886-35.174c24.185 2.714 21.28 36.054 21.28 36.054s-3.128 45.705-4.841 52.304-2.575 13.937-7.512 16.577l-21.95-3.005z"/><path fill="#202324" d="m165.452 229.404-5.852 12.44 3.628 47.511s31.175 2.349 30.856 1.601 5.586-23.662 5.586-23.662 1.936-30.411-7.299-36.214c-9.236-5.803-26.919-1.676-26.919-1.676"/><path fill="#ffbf9d" d="m164.483 289.439.405 22.689 21.78 10.511 5.916-31.543z"/><path fill="#202324" d="m115.955 284.16 23.78-8.62 14.226 11.213-7.895 22.361-20.865-6.852z"/><path fill="#535455" d="m187.732 324.539-.287-.149-.873-.384-3.362-1.442-12.395-5.26-18.418-7.713-10.885-4.511-5.756-2.396-2.947-1.226-1.49-.618a11.6 11.6 0 0 0-1.532-.571 24.4 24.4 0 0 0-6.469-1.151c-2.136-.116-4.281 0-6.384.346-3.982.664-7.787 1.982-11.215 3.884-3.096 1.719-5.877 3.844-8.246 6.3a44 44 0 0 0-5.416 6.879A59.7 59.7 0 0 0 86.6 327.6c-.51 1.357-.862 2.424-1.064 3.154l-.255.824a1 1 0 0 0-.064.281s0-.084.117-.272l.298-.814a93 93 0 0 1 1.17-3.117 62.5 62.5 0 0 1 5.554-11.026 45 45 0 0 1 5.427-6.795c2.354-2.422 5.113-4.514 8.182-6.206 3.385-1.868 7.138-3.16 11.065-3.809a28.6 28.6 0 0 1 6.289-.337c2.181.091 4.333.473 6.384 1.132q.78.228 1.511.562l1.489.618 2.947 1.226 5.757 2.386 10.884 4.521 18.461 7.629 12.459 5.12 3.394 1.366.894.347q.111.083.234.149"/><path fill="#535455" d="M142.427 306.072a19 19 0 0 1 .266-3.445 25.1 25.1 0 0 1 3.416-7.731 46 46 0 0 0 4.085-7.591c.304-.812.531-1.645.681-2.49q.105-.464.075-.936c-.085 0-.234 1.32-1.064 3.333a57 57 0 0 1-4.192 7.488 23.1 23.1 0 0 0-3.32 7.871 10.2 10.2 0 0 0-.117 2.565q.02.477.17.936M199.734 267.294l-.085.243c0 .187-.117.43-.213.73-.181.674-.426 1.61-.756 2.808-.638 2.443-1.564 5.981-2.649 10.362a251 251 0 0 0-1.692 7.179c-.138.655-.287 1.301-.383 1.993q-.009.15 0 .3v.093-.14h-.053a5 5 0 0 1-.553.047h-1.181c-1.586 0-3.192-.103-4.905-.187-6.725-.356-14.098-.871-21.844-1.432l-2.128-.16.202.188c-1.064-13.207-1.958-25.066-2.639-33.696-.351-4.268-.638-7.722-.84-10.137q-.16-1.757-.256-2.743c0-.299-.053-.533-.074-.711a.8.8 0 0 0 0-.243.8.8 0 0 0 0 .243v.711c0 .656.106 1.582.17 2.752.17 2.415.404 5.869.702 10.146.639 8.593 1.522 20.461 2.501 33.696v.178h.202l2.128.159c7.746.571 15.13 1.067 21.865 1.404 1.681.075 3.32.15 4.926.169h1.192q.31-.008.617-.056a1 1 0 0 0 .224-.075.2.2 0 0 0 .085-.103.2.2 0 0 0 0-.103c-.139 0 0-.047 0 0a2 2 0 0 1 0-.215c.085-.656.234-1.32.361-1.966a326 326 0 0 1 1.639-7.188c1.064-4.362 1.915-7.9 2.511-10.381l.67-2.808c.064-.309.128-.552.16-.739a.66.66 0 0 0 .096-.318"/><path fill="#535455" d="M171.027 225.819a3.6 3.6 0 0 0-.691.525 24 24 0 0 0-1.724 1.6c-3.604 3.686-6.19 8.056-7.554 12.767-.256.936-.426 1.638-.511 2.153a2.7 2.7 0 0 0-.085.805c.074 0 .33-1.114.904-2.883 1.522-4.617 4.072-8.922 7.501-12.664 1.309-1.432 2.224-2.256 2.16-2.303M135.426 300.035a2.8 2.8 0 0 0-.149-.758 28 28 0 0 0-.639-2.013 39.3 39.3 0 0 0-2.979-6.393 42 42 0 0 0-4.139-5.868c-.596-.702-1.064-1.264-1.479-1.629a2.8 2.8 0 0 0-.606-.552s.691.936 1.819 2.349a54 54 0 0 1 3.99 5.888 51 51 0 0 1 3.075 6.299c.681 1.647 1.032 2.696 1.107 2.677M96.313 297.292c-.075 0-.383.796-1.064 2.05a24.3 24.3 0 0 1-3.192 4.605 25.7 25.7 0 0 1-4.256 3.857c-1.213.87-2.032 1.347-1.99 1.404s.234-.075.628-.262a17 17 0 0 0 1.564-.936 22 22 0 0 0 4.49-3.81 20 20 0 0 0 3.086-4.745 13 13 0 0 0 .606-1.564 1.7 1.7 0 0 0 .128-.599"/><path fill="#fafafa" d="M212.14 349.699c13.428-.599 16.811-.225 30.239-.824 3.277-.149 15.204.216 17.939-1.376 2.5-1.441 5.703-2.808 6.384-5.363 1.064-4.324-.266-9.22-4.788-11.925-1.584-.932-3.419-1.48-5.32-1.591-7.927-.552-15.173 4.54-23.1 3.024-2.128-.403-4.064-1.451-6.192-1.872-3.175-.55-6.468-.085-9.289 1.31-2.841 1.292-3.5 1.507-3.5 1.507l-14.109-4.203-4.394 21.678z"/><path fill="#fafafa" d="m200.181 323.238 7.448 2.134c.546.16 1.006.49 1.292.929.287.438.38.954.262 1.449L203.405 351c-.118.497-.444.937-.912 1.233a2.55 2.55 0 0 1-1.62.368l-7.533-.74a2.5 2.5 0 0 1-.916-.263 2.25 2.25 0 0 1-.715-.568 1.94 1.94 0 0 1-.391-.774 1.8 1.8 0 0 1 0-.847l5.863-24.617c.063-.284.195-.553.385-.789.19-.235.435-.433.719-.58.283-.147.599-.239.925-.271s.658-.002.971.086"/><path fill="#202324" d="M203.224 351.936a21.6 21.6 0 0 0 1.372-3.491 104 104 0 0 0 2.554-8.621 86 86 0 0 0 1.723-8.779c.149-1.133.256-2.06.298-2.696a2.7 2.7 0 0 0 0-.992 28 28 0 0 0-.744 3.631 172 172 0 0 1-1.894 8.715c-.83 3.378-1.735 6.439-2.373 8.639a24.5 24.5 0 0 0-.936 3.594M207.894 330.717c-1.613-1.156-3.546-1.916-5.601-2.204a13.3 13.3 0 0 0-6.103.566c0 .178 2.724-.506 6.012 0 3.288.505 5.597 1.788 5.692 1.638"/><path fill="#202324" d="M207.012 339.497a29 29 0 0 0-6.235-1.723 29.2 29.2 0 0 0-6.469-.87 54 54 0 0 0 6.32 1.413c3.5.712 6.331 1.339 6.384 1.18M203.628 348.604c0-.178-2.884.131-6.065-1.067s-4.99-3.154-5.128-3.033c-.139.122.298.599 1.064 1.339a12.2 12.2 0 0 0 3.777 2.218 13 13 0 0 0 4.458.786 4.5 4.5 0 0 0 1.894-.243"/><path fill="#fafafa" d="m163.92 304.874.564 9.809 22.259 9.398 3.702-16.38z"/><path fill="#fafafa" d="m194.127 301.944-1.671 6.833c-.123.505-.454.952-.929 1.254a2.6 2.6 0 0 1-1.646.384l-27.408-2.649a2.5 2.5 0 0 1-1.522-.682 1.95 1.95 0 0 1-.606-1.405v-6.805a1.9 1.9 0 0 1 .214-.841c.136-.264.334-.501.58-.694.246-.194.535-.34.849-.431s.646-.122.974-.093l29.026 2.611c.338.023.665.109.962.253.297.143.555.341.757.579.203.239.345.512.417.803s.074.592.003.883"/><path fill="#202324" d="M161.409 307.71c1.356.393 2.748.681 4.16.861 2.597.431 6.193.936 10.204 1.367s7.65.561 10.3.599h3.128a4.5 4.5 0 0 0 1.138-.103 38 38 0 0 0-4.256-.281c-2.628-.14-6.256-.374-10.246-.768-3.99-.393-7.586-.861-10.193-1.198a37 37 0 0 0-4.235-.477M186.338 309.61c1.26-1.52 1.941-3.351 1.947-5.232.213-3.145-1.181-5.476-1.309-5.391s.873 2.368.66 5.354c-.213 2.985-1.436 5.194-1.298 5.269"/><path fill="#202324" d="M176.123 309.76a21 21 0 0 0 1.33-5.747c.469-3.22.501-5.85.32-5.86-.181-.009-.5 2.593-.958 5.785s-.872 5.784-.692 5.822M165.281 307.71c.202 0-.447-2.565.585-5.522s3.107-4.783 2.948-4.896-.649.328-1.415 1.133c-1.966 2.154-2.897 4.898-2.597 7.647.012.571.176 1.133.479 1.638"/><path fill="#ffbf9d" d="M114.369 232.858s11.374 1.413 12.098 2.031c.723.618 15.364 15.725 15.364 15.725l-6.969 12.72-12.906-5.85a22.4 22.4 0 0 0-4.086-1.076s-12.917-1.545-13.832-2.892c-.915-1.348-.405-1.676.542-1.872s8.672.402 10.396.645c1.709.116 3.426.085 5.128-.093 0 0-5.373-1.002-6.597-1.348-1.223-.346-13.246-2.48-13.097-4.381.149-1.9 1.617-2.602 9.161-.936a60.3 60.3 0 0 0 12.789 1.507l-16.694-4.783s-6.725-1.759-4.618-3.481c2.107-1.723 16.492 1.478 16.492 1.478l6.384 1.985-1.873-3.323s-9.044-2.181-10.214-2.948c-1.447-.936-1.671-1.872-.617-2.687 1.053-.814 3.149-.421 3.149-.421"/><path fill="#202324" d="M75.543 216.937a5 5 0 0 1-.149 1.123c-.148.814-.34 1.825-.574 3.023-.479 2.556-1.064 6.094-1.692 10.006s-.99 7.488-1.266 10.062c-.128 1.208-.245 2.228-.33 3.051q-.03.57-.18 1.124a4 4 0 0 1 0-1.133c0-.73.063-1.778.148-3.07.181-2.593.532-6.168 1.064-10.09s1.277-7.488 1.862-10.006c.298-1.273.553-2.302.745-3.004.071-.375.196-.74.372-1.086M150.737 217.92c0-.262-2.83-15.632-4.15-21.07l-20.811 2.808c-.288 2.275-.383 10.203-.32 12.87-.035 2.692.974 5.314 2.863 7.432.961 1.039 2.234 1.821 3.674 2.258a9.24 9.24 0 0 0 4.476.213c1.602 2.062 4.044 3.503 6.82 4.025 2.766.374 5.927-.889 6.81-3.229.626-1.712.843-3.519.638-5.307M120.424 220.026l-3.32 28.014a1.7 1.7 0 0 1-.703 1.164c-.397.294-.908.44-1.425.408l-19.705-1.385a2.1 2.1 0 0 1-1.354-.604 1.62 1.62 0 0 1-.476-1.268l2.32-29.456c.018-.244.094-.483.224-.7s.31-.408.528-.561c.218-.152.47-.263.74-.325.27-.061.552-.073.827-.033l20.663 2.808c.511.067.973.307 1.287.669s.455.817.394 1.269"/><path fill="#ffbf9d" d="M103.783 229.32s-11.47-.253-12.31.253c-.841.505-18.057 13.319-18.057 13.319l4.49 13.572s12.396-3.501 13.832-3.912a23.5 23.5 0 0 1 4.256-.478s13.034.347 14.141-.861.702-1.591-.192-1.956-8.629-.852-10.374-.852a29.7 29.7 0 0 1-5.043-.833s5.49-.215 6.756-.384c1.266-.168 13.534-.543 13.747-2.424s-1.064-2.808-8.863-2.265c-4.254.347-8.54.246-12.768-.3l17.258-2.33s6.959-.768 5.203-2.808-16.556-.936-16.556-.936l-6.65 1.039 2.458-3.014s9.331-.843 10.64-1.432c1.607-.73 2-1.592 1.064-2.556s-3.032-.842-3.032-.842"/><path fill="#ffbf9d" d="m49.22 239.944 19.238 6.318-.362 2.349 5.788-6.065 5.32 12.168s-8.948 15.472-10.885 19.44c-5.543 11.494-15.396 17.494-22.46 14.948-8.513-3.051-13.386-10.951-9.502-19.712 2.309-5.213 12.864-29.446 12.864-29.446"/><path fill="#ff9a6c" d="M73.416 242.892s.16-.14.468-.384l1.415-1.076 5.448-4.09 8.629-6.412 1.298-.936.681-.487a3 3 0 0 1 .904-.206c1.181-.112 2.394-.131 3.64-.149h7.894a6.8 6.8 0 0 1 2.075.262c.358.101.688.266.968.486.283.231.496.521.617.843a1.13 1.13 0 0 1-.095 1.039 2.6 2.6 0 0 1-.798.739 4.3 4.3 0 0 1-1.064.487 23 23 0 0 1-1.064.234c-2.948.496-6.055.805-9.268 1.114l.15-.066-2.459 3.005-.202-.29 6.65-1.039c2.788-.188 5.661-.309 8.587-.3 1.468 0 2.958.056 4.447.206.759.066 1.51.188 2.245.365.378.093.738.239 1.064.431.185.103.342.24.461.402.12.161.198.343.231.534 0 .199-.056.395-.161.571a1.3 1.3 0 0 1-.446.439 4.6 4.6 0 0 1-1.064.515q-1.093.39-2.245.609c-1.532.29-3.075.43-4.618.655l-9.405 1.254-5.108.674v-.393c3.923.483 7.893.599 11.843.346a58 58 0 0 1 5.809-.178 9.1 9.1 0 0 1 2.862.468c.501.175.908.509 1.139.936.201.42.256.882.16 1.33-.075.242-.25.453-.49.589a4 4 0 0 1-.649.318q-.658.244-1.351.394-1.337.296-2.703.468a89 89 0 0 1-5.32.505l-2.607.168c-.84.057-1.713.169-2.564.206-1.692.094-3.351.169-4.99.234v-.355c1.787.494 3.64.781 5.511.851a139 139 0 0 1 5.406.319c.872.075 1.745.15 2.596.243.425.047.851.094 1.266.159q.337.053.66.15.306.121.574.299a.9.9 0 0 1 .252.248.8.8 0 0 1 .121.314.96.96 0 0 1-.149.599 3 3 0 0 1-.341.487l-.191.215a1 1 0 0 1-.277.206 8.4 8.4 0 0 1-2.373.496 90 90 0 0 1-8.799.262h-1.99a16 16 0 0 0-1.904 0 15.4 15.4 0 0 0-3.469.506l-9.98 2.808-2.639.711-.67.178-.234.056.223-.075.67-.206 2.618-.767 9.938-2.864a25.9 25.9 0 0 1 7.448-.562 89 89 0 0 0 8.756-.3 8 8 0 0 0 2.245-.468.6.6 0 0 0 .181-.131l.181-.206q.176-.205.298-.439c.181-.309.181-.599-.128-.787a2.4 2.4 0 0 0-.5-.262 7 7 0 0 0-.574-.121c-.405-.066-.83-.113-1.245-.16q-1.276-.122-2.586-.224a136 136 0 0 0-5.383-.309 24.6 24.6 0 0 1-5.608-.843.2.2 0 0 1-.122-.082.17.17 0 0 1-.027-.133.2.2 0 0 1 .073-.092.23.23 0 0 1 .119-.039c1.638-.065 3.298-.14 4.99-.243.851 0 1.67-.15 2.554-.215l2.606-.169c1.745-.131 3.522-.271 5.32-.515q1.345-.165 2.66-.458a9 9 0 0 0 1.277-.375c.383-.15.83-.374.883-.636a1.67 1.67 0 0 0-.127-1.077 1.66 1.66 0 0 0-.915-.711 8.8 8.8 0 0 0-2.703-.431 57 57 0 0 0-5.756.188 62.8 62.8 0 0 1-11.885-.328.23.23 0 0 1-.154-.074.2.2 0 0 1-.037-.072.2.2 0 0 1 0-.079.2.2 0 0 1 .063-.112.23.23 0 0 1 .128-.056l5.107-.683 9.406-1.255c1.543-.224 3.096-.365 4.586-.645a14.4 14.4 0 0 0 2.128-.581q.504-.184.947-.468a.86.86 0 0 0 .312-.284.75.75 0 0 0 .124-.38c-.064-.553-.766-.88-1.458-1.039a14 14 0 0 0-2.128-.356 50 50 0 0 0-4.405-.206 132 132 0 0 0-8.512.281l-6.66 1.029a.2.2 0 0 1-.08-.002.2.2 0 0 1-.127-.081.2.2 0 0 1-.028-.066.17.17 0 0 1 0-.141c.862-1.039 1.703-2.078 2.469-3.004a.24.24 0 0 1 .149-.075c3.192-.3 6.309-.609 9.225-1.086a11 11 0 0 0 1.064-.225c.328-.102.636-.247.915-.43.574-.346 1.011-.88.777-1.413a1.9 1.9 0 0 0-.532-.706 2.2 2.2 0 0 0-.83-.427 6 6 0 0 0-1.947-.243c-2.756-.066-5.395-.094-7.874-.066-1.245 0-2.458 0-3.618.131a2.5 2.5 0 0 0-.766.159l-.67.468-1.298.936-8.693 6.309-5.522 4.006-1.447 1.039c-.32.253-.479.365-.479.365"/><path fill="#ff9a6c" d="M73.416 242.892c.117.084-5.32 6.112-12.087 13.45-6.767 7.339-12.385 13.226-12.544 13.151s5.32-6.103 12.087-13.45c6.767-7.348 12.406-13.235 12.544-13.151"/><path fill="#8baa36" d="M337.056 75.112q-1.232 0-2.208-.4a3.66 3.66 0 0 1-1.568-1.184q-.576-.784-.608-1.888h2.912q.065.624.432.96.368.32.96.32.608 0 .96-.272.352-.288.352-.784a.9.9 0 0 0-.288-.688 2.1 2.1 0 0 0-.688-.448q-.4-.175-1.152-.4-1.088-.336-1.776-.672a3.3 3.3 0 0 1-1.184-.992q-.496-.656-.496-1.712 0-1.568 1.136-2.448 1.136-.896 2.96-.896 1.856 0 2.992.896 1.136.88 1.216 2.464h-2.96q-.032-.544-.4-.848-.368-.32-.944-.32-.496 0-.8.272-.304.255-.304.752 0 .544.512.848t1.6.656q1.088.368 1.76.704.688.337 1.184.976.496.64.496 1.648 0 .96-.496 1.744-.48.784-1.408 1.248-.928.465-2.192.464m10.084.016q-1.312 0-2.368-.56a4.16 4.16 0 0 1-1.648-1.6q-.592-1.04-.592-2.432 0-1.376.608-2.416a4.1 4.1 0 0 1 1.664-1.616q1.056-.56 2.368-.56t2.368.56a4.1 4.1 0 0 1 1.664 1.616q.608 1.04.608 2.416t-.624 2.432a4.1 4.1 0 0 1-1.68 1.6q-1.057.56-2.368.56m0-2.368q.783 0 1.328-.576.56-.576.56-1.648t-.544-1.648a1.7 1.7 0 0 0-1.312-.576q-.8 0-1.328.576-.528.56-.528 1.648 0 1.072.512 1.648.528.576 1.312.576m19.626-8.992-3.888 7.52V75h-2.736v-3.712l-3.888-7.52h3.104l2.176 4.704 2.16-4.704zm10.158 2.304V75h-2.736v-1.216a3.05 3.05 0 0 1-1.136.96 3.46 3.46 0 0 1-1.568.352q-1.023 0-1.808-.448a3.13 3.13 0 0 1-1.216-1.328q-.432-.864-.432-2.032v-5.216h2.72v4.848q0 .895.464 1.392.465.495 1.248.496.8 0 1.264-.496t.464-1.392v-4.848zm13.598-.096q1.663 0 2.64 1.008.992 1.008.992 2.8V75h-2.72v-4.848q0-.864-.464-1.328-.448-.48-1.248-.48t-1.264.48q-.448.464-.448 1.328V75h-2.72v-4.848q0-.864-.464-1.328-.448-.48-1.248-.48t-1.264.48q-.448.464-.448 1.328V75h-2.736v-8.928h2.736v1.12q.416-.56 1.088-.88a3.35 3.35 0 0 1 1.52-.336q1.008 0 1.792.432.8.432 1.248 1.232.463-.735 1.264-1.2a3.4 3.4 0 0 1 1.744-.464m17.177 0q1.663 0 2.64 1.008.992 1.008.992 2.8V75h-2.72v-4.848q0-.864-.464-1.328-.448-.48-1.248-.48t-1.264.48q-.448.464-.448 1.328V75h-2.72v-4.848q0-.864-.464-1.328-.448-.48-1.248-.48t-1.264.48q-.448.464-.448 1.328V75h-2.736v-8.928h2.736v1.12q.416-.56 1.088-.88a3.35 3.35 0 0 1 1.52-.336q1.008 0 1.792.432.8.432 1.248 1.232.464-.735 1.264-1.2a3.4 3.4 0 0 1 1.744-.464m14.906.096-5.6 13.168h-2.944l2.048-4.544-3.632-8.624h3.056l2.064 5.584 2.048-5.584z"/></svg>